<!-- Generator: Adobe Illustrator 21.0.0, SVG Export Plug-In  -->
<svg version="1.1"
	 xmlns="http://www.w3.org/2000/svg" xmlns:xlink="http://www.w3.org/1999/xlink" xmlns:a="http://ns.adobe.com/AdobeSVGViewerExtensions/3.0/"
	 x="0px" y="0px" width="161.1px" height="57.3px" viewBox="0 0 161.1 57.3"
	 style="overflow:scroll;enable-background:new 0 0 161.1 57.3;" xml:space="preserve">
<style type="text/css">
	.st0{fill:#58595B;}
</style>
<defs>
</defs>
<g>
	<g>
		<g>
			<path class="st0" d="M22,15h3c0.2,0,0.4-0.2,0.4-0.4c0-0.2-0.2-0.4-0.4-0.4h-3c-0.2,0-0.4,0.2-0.4,0.4C21.6,14.8,21.8,15,22,15z
				 M23.5,41.4c-0.9,0-1.6,0.7-1.6,1.6c0,0.9,0.7,1.6,1.6,1.6c0.9,0,1.6-0.7,1.6-1.6C25,42.1,24.3,41.4,23.5,41.4z M15.8,40h15.4
				V17.3H15.8V40z M65.1,32.6c-0.7,0-1.4,0.2-2,0.7c-0.6,0.5-1,1.1-1.2,1.9c-0.1,0.4-0.1,0.7-0.1,0.9v2.2c0,1,0.3,1.8,0.9,2.5
				c0.6,0.7,1.4,1,2.3,1c1.1,0,2-0.4,2.6-1.3c0.6-0.9,0.9-2,0.9-3.4c0-1.3-0.3-2.4-0.9-3.2C67,33,66.2,32.6,65.1,32.6z M119,32.4
				c-1.2,0-2.1,0.5-2.7,1.6c-0.5,0.9-0.8,1.9-0.8,3.2c0,1.2,0.3,2.3,0.8,3.1c0.6,1.1,1.5,1.6,2.7,1.6c1.1,0,2-0.5,2.6-1.6
				c0.6-0.9,0.8-1.9,0.8-3.2s-0.3-2.3-0.8-3.1C121,32.9,120.2,32.4,119,32.4z M79.7,32.6c-0.7,0-1.4,0.2-2,0.7
				c-0.6,0.5-1,1.1-1.2,1.9c-0.1,0.4-0.1,0.7-0.1,0.9v2.2c0,1,0.3,1.8,0.9,2.5c0.6,0.7,1.4,1,2.3,1c1.1,0,2-0.4,2.6-1.3
				c0.6-0.9,0.9-2,0.9-3.4c0-1.3-0.3-2.4-0.9-3.2C81.6,33,80.8,32.6,79.7,32.6z M49.2,27.8L49.2,27.8c-0.2,0.8-0.5,1.9-0.9,3.5
				l-1.5,4.8h5l-1.6-4.8C49.9,30.8,49.6,29.6,49.2,27.8z M141.4,32.2c-1,0-1.7,0.4-2.4,1.2c-0.5,0.6-0.8,1.4-0.9,2.3h6.2
				c0-0.9-0.2-1.6-0.6-2.3C143.3,32.7,142.5,32.2,141.4,32.2z M62.2,19.1c0-0.1,0-0.3,0-0.4v-0.9c-1.2,0-2.4,0.2-2.4,1.3
				c0,0.7,0.4,1,1,1C61.5,20.1,62,19.6,62.2,19.1z M46.1,14.8c-0.2-0.6-0.3-1.2-0.5-1.8h0c-0.1,0.5-0.3,1.2-0.5,1.8l-0.7,2.3h2.4
				L46.1,14.8z M144.2,14.1c2.2,0,3,1.8,3,3.3c0,0.3,0,0.6-0.1,0.7h-4.6c0,1.2,1,1.8,2.1,1.8c0.8,0,1.4-0.1,1.9-0.3l0.3,1.2
				c-0.6,0.3-1.4,0.4-2.4,0.4c-2.2,0-3.5-1.4-3.5-3.5C140.8,15.9,142,14.1,144.2,14.1z M116.7,14.3l0.1,1h0c0.3-0.5,1.1-1.2,2.2-1.2
				c1.2,0,2.4,0.8,2.4,2.9v4.1h-1.7v-3.9c0-1-0.4-1.7-1.3-1.7c-0.7,0-1.2,0.5-1.4,1c-0.1,0.1-0.1,0.4-0.1,0.5v4h-1.7v-4.8
				c0-0.8,0-1.4-0.1-2H116.7z M98.5,14.1c2.2,0,3,1.8,3,3.3c0,0.3,0,0.6-0.1,0.7h-4.6c0,1.2,1,1.8,2.1,1.8c0.8,0,1.4-0.1,1.9-0.3
				l0.3,1.2c-0.6,0.3-1.4,0.4-2.4,0.4c-2.2,0-3.5-1.4-3.5-3.5C95.2,15.9,96.3,14.1,98.5,14.1z M91.4,11.1h1.7v10h-1.7V11.1z
				 M77.7,15.4c-0.7,0-1.4,0.2-1.8,0.5l-0.3-1.1c0.5-0.3,1.4-0.6,2.5-0.6c2.2,0,2.8,1.4,2.8,2.9v2.5c0,0.6,0,1.2,0.1,1.6h-1.6
				l-0.1-0.8h0c-0.4,0.5-1.1,0.9-2,0.9c-1.4,0-2.2-1-2.2-2c0-1.7,1.5-2.6,4.1-2.6v-0.1C79.1,16.1,78.9,15.4,77.7,15.4z M67.5,11.4
				c0.6,0,1,0.4,1,0.9c0,0.5-0.4,0.9-1,0.9c-0.6,0-1-0.4-1-0.9C66.5,11.8,66.9,11.4,67.5,11.4z M68.3,14.3v6.9h-1.7v-6.9H68.3z
				 M44.5,11.7h2.2l3.1,9.5h-1.9l-0.9-2.7h-3l-0.8,2.7h-1.8L44.5,11.7z M33,43.1c0,1.7-1.4,3-3,3H17c-1.7,0-3-1.4-3-3V14.2
				c0-1.7,1.4-3,3-3h13c1.7,0,3,1.4,3,3V43.1z M53.9,43.8l-1.7-5.4h-6l-1.6,5.4h-3.1l5.9-18.4h3.7l6,18.4H53.9z M54.6,21.1h-1.7
				l-2.5-6.9h1.9l1.1,3.5c0.2,0.6,0.3,1.2,0.5,1.7h0c0.1-0.6,0.3-1.1,0.5-1.7l1.1-3.5h1.8L54.6,21.1z M58.1,19.3
				c0-1.7,1.5-2.6,4.1-2.6v-0.1c0-0.4-0.2-1.2-1.4-1.2c-0.7,0-1.4,0.2-1.8,0.5l-0.3-1.1c0.5-0.3,1.4-0.6,2.5-0.6
				c2.2,0,2.8,1.4,2.8,2.9v2.5c0,0.6,0,1.2,0.1,1.6h-1.6l-0.1-0.8h0c-0.4,0.5-1.1,0.9-2,0.9C58.9,21.3,58.1,20.3,58.1,19.3z
				 M69.7,42.3c-1.1,1.2-2.5,1.7-4.1,1.7c-1.8,0-3-0.6-3.8-1.9v7h-3V34.9c0-1.4,0-2.9-0.1-4.4h2.6l0.2,2.1h0.1
				c1-1.6,2.5-2.4,4.5-2.4c1.6,0,2.9,0.6,3.9,1.9c1,1.2,1.6,2.9,1.6,4.9C71.5,39.2,70.9,41,69.7,42.3z M72.8,21.1H71v-10h1.7V21.1z
				 M84.3,42.3c-1.1,1.2-2.5,1.7-4.1,1.7c-1.8,0-3-0.6-3.8-1.9v7h-3V34.9c0-1.4,0-2.9-0.1-4.4h2.6l0.2,2.1h0.1
				c1-1.6,2.5-2.4,4.5-2.4c1.6,0,2.9,0.6,3.9,1.9c1.1,1.2,1.6,2.9,1.6,4.9C86.2,39.2,85.5,41,84.3,42.3z M86.3,21.3
				c-0.9,0-1.7-0.3-2.2-1.2h0l-0.1,1h-1.5c0-0.5,0.1-1.2,0.1-1.9v-8.1h1.7v4.1h0c0.4-0.7,1.2-1.1,2.2-1.1c1.7,0,2.9,1.4,2.9,3.5
				C89.5,20.1,87.9,21.3,86.3,21.3z M101.2,42.5c-1.2,1.1-2.9,1.6-5,1.6c-2,0-3.6-0.4-4.8-1.1l0.7-2.5c1.3,0.8,2.7,1.1,4.3,1.1
				c1.1,0,2-0.3,2.6-0.8c0.6-0.5,0.9-1.2,0.9-2c0-0.7-0.3-1.4-0.8-1.9c-0.5-0.5-1.4-1-2.5-1.4c-3.2-1.2-4.8-3-4.8-5.3
				c0-1.5,0.6-2.8,1.7-3.7c1.1-1,2.7-1.4,4.5-1.4c1.7,0,3.1,0.3,4.2,0.9l-0.7,2.4c-1-0.6-2.2-0.8-3.5-0.8c-1,0-1.9,0.3-2.4,0.8
				c-0.5,0.5-0.7,1-0.7,1.7c0,0.7,0.3,1.3,0.8,1.8c0.5,0.4,1.4,0.9,2.7,1.4c1.6,0.6,2.8,1.4,3.5,2.2c0.7,0.9,1.1,1.9,1.1,3.2
				C102.9,40.2,102.3,41.5,101.2,42.5z M111.6,32.7h-3.3v6.5c0,1.6,0.6,2.5,1.7,2.5c0.5,0,1,0,1.3-0.1l0.1,2.2
				c-0.6,0.2-1.3,0.3-2.3,0.3c-1.2,0-2.1-0.4-2.7-1.1c-0.7-0.7-1-1.9-1-3.6v-6.7h-1.9v-2.2h1.9v-2.4l2.9-0.9v3.3h3.3V32.7z
				 M110,21.3c-1.9,0-3.4-1.3-3.4-3.5c0-2.3,1.5-3.6,3.5-3.6c2,0,3.4,1.4,3.4,3.5C113.5,20.2,111.7,21.3,110,21.3z M123.8,42.1
				c-1.2,1.3-2.9,2-4.9,2c-2,0-3.5-0.6-4.7-1.9c-1.2-1.3-1.7-2.9-1.7-4.9c0-2.1,0.6-3.8,1.8-5.1c1.2-1.3,2.8-2,4.8-2
				c2,0,3.5,0.6,4.7,1.9c1.1,1.3,1.7,2.9,1.7,4.9C125.5,39.1,124.9,40.8,123.8,42.1z M126.8,14.3h1V13l1.7-0.5v1.8h1.6v1.3h-1.6v3
				c0,0.8,0.2,1.3,0.9,1.3c0.3,0,0.5,0,0.7-0.1l0,1.3c-0.3,0.1-0.7,0.2-1.3,0.2c-0.6,0-1.2-0.2-1.5-0.6c-0.4-0.4-0.5-1-0.5-1.9v-3.2
				h-1V14.3z M134.4,33.1c-0.3-0.1-0.6-0.1-0.9-0.1c-1,0-1.8,0.4-2.4,1.2c-0.5,0.7-0.7,1.6-0.7,2.6v7h-3v-9.1c0-1.5,0-2.9-0.1-4.2
				h2.6L130,33h0.1c0.3-0.9,0.8-1.6,1.5-2.1c0.7-0.5,1.4-0.7,2.1-0.7c0.3,0,0.5,0,0.7,0V33.1z M134.9,17v4.1h-1.7v-10h1.7v4.1h0
				c0.2-0.3,0.5-0.6,0.9-0.8c0.4-0.2,0.8-0.3,1.2-0.3c1.2,0,2.4,0.8,2.4,3v4h-1.7v-3.9c0-1-0.4-1.7-1.3-1.7c-0.7,0-1.2,0.5-1.4,1
				C134.9,16.7,134.9,16.8,134.9,17z M147.1,37.9h-8.9c0,1.3,0.5,2.3,1.3,3c0.7,0.6,1.7,0.9,2.9,0.9c1.3,0,2.5-0.2,3.6-0.6l0.5,2.1
				c-1.3,0.6-2.7,0.8-4.5,0.8c-2.1,0-3.7-0.6-4.9-1.8c-1.2-1.2-1.8-2.8-1.8-4.9c0-2,0.6-3.7,1.6-5c1.2-1.4,2.7-2.1,4.7-2.1
				c1.9,0,3.4,0.7,4.4,2.1c0.8,1.1,1.2,2.5,1.2,4.2C147.2,37,147.1,37.5,147.1,37.9z M86,15.5c-0.7,0-1.4,0.5-1.5,1.3
				c0,0.1-0.1,0.3-0.1,0.5v1.1c0,0.1,0,0.3,0,0.4c0.2,0.7,0.8,1.2,1.5,1.2c1.1,0,1.7-0.9,1.7-2.3C87.7,16.5,87.1,15.5,86,15.5z
				 M98.4,15.3c-1.1,0-1.5,1-1.6,1.7h3C99.9,16.4,99.6,15.3,98.4,15.3z M110.1,15.4c-1.2,0-1.7,1.2-1.7,2.3c0,1.3,0.7,2.3,1.7,2.3
				c1,0,1.7-1,1.7-2.3C111.7,16.6,111.2,15.4,110.1,15.4z M76.7,19.1c0,0.7,0.4,1,1,1c0.7,0,1.2-0.5,1.4-0.9c0-0.1,0-0.3,0-0.4v-0.9
				C77.9,17.8,76.7,18,76.7,19.1z M144.1,15.3c-1.1,0-1.5,1-1.6,1.7h3C145.5,16.4,145.2,15.3,144.1,15.3z"/>
		</g>
	</g>
	<g>
		<path class="st0" d="M153.4,57.3H7.7c-4.3,0-7.7-3.5-7.7-7.7V7.7C0,3.5,3.5,0,7.7,0h145.7c4.3,0,7.7,3.5,7.7,7.7v41.9
			C161.1,53.8,157.7,57.3,153.4,57.3z M7.7,2C4.6,2,2,4.6,2,7.7v41.9c0,3.2,2.6,5.7,5.7,5.7h145.7c3.2,0,5.7-2.6,5.7-5.7V7.7
			c0-3.2-2.6-5.7-5.7-5.7H7.7z"/>
	</g>
</g>
</svg>
