<svg width="530" height="442" viewBox="0 0 530 442" fill="none" xmlns="http://www.w3.org/2000/svg">
<path fill-rule="evenodd" clip-rule="evenodd" d="M219 30H455C479.853 30 500 50.1472 500 75V214C500 222.533 500 241 500 241V300.5L448 259H379.5C372.711 259 384.5 198 384.5 156C371.818 121.04 320.668 114.071 296.5 95.5C296.5 95.5 174 112.286 174 100.5V75C174 50.1472 194.147 30 219 30ZM455 0C496.421 0 530 33.5786 530 75V214C530 228.918 530 305.5 530 330.5C530 355.5 511 346.5 500 339.5C489 332.5 433.5 289 433.5 289H379.5C365.447 289 373.358 213.391 358 169C358 143 358 120 300.5 124C219 124 144 124 144 100.5V75C144 33.5786 177.579 0 219 0H455Z" fill="white"/>
<path fill-rule="evenodd" clip-rule="evenodd" d="M311 125H75C50.1472 125 30 145.147 30 170V309C30 317.533 30 336 30 336V395.5L82 354H311C335.853 354 356 333.853 356 309V170C356 145.147 335.853 125 311 125ZM75 95C33.5786 95 2.46801e-06 128.579 2.46801e-06 170V309C2.46801e-06 323.918 -3.08501e-06 400.5 2.46801e-06 425.5C8.02102e-06 450.5 19 441.5 30 434.5C41 427.5 96.5 384 96.5 384H311C352.421 384 386 350.421 386 309V170C386 128.579 352.421 95 311 95H75Z" fill="white"/>
</svg>
