<svg width="19" height="15" viewBox="0 0 19 15" fill="none" xmlns="http://www.w3.org/2000/svg">
<path d="M1.27405 8.79412L14.6523 8.79412L10.8173 12.7727C10.3204 13.28 10.3204 14.1123 10.8173 14.6196C11.0553 14.8631 11.3785 15 11.7155 15C12.0525 15 12.3756 14.8631 12.6137 14.6196L18.6273 8.41695C19.1242 7.90971 19.1242 7.09032 18.6273 6.58308L12.6137 0.380432C12.1168 -0.126809 11.3141 -0.126809 10.8173 0.380431C10.3204 0.887672 10.3204 1.70706 10.8173 2.2143L14.6523 6.19289L1.27405 6.19289C0.573323 6.19289 -1.18857e-06 6.77817 -1.25111e-06 7.49351C-1.31365e-06 8.20884 0.573323 8.79412 1.27405 8.79412Z" fill="#3E74E7"/>
</svg>
