<svg xmlns="http://www.w3.org/2000/svg" width="25" height="13" viewBox="0 0 25 13"><g><g><path fill="#3e74e7" d="M2.443 5.714c.35-1.918 2.076-3.235 3.95-3.235h3.664c.65 0 1.187-.561 1.187-1.24C11.244.561 10.707 0 10.057 0H6.519C3.256 0 .343 2.492.03 5.884c-.362 3.887 2.563 7.161 6.214 7.161h3.813c.65 0 1.187-.56 1.187-1.239 0-.678-.537-1.24-1.187-1.24H6.244c-2.388 0-4.276-2.269-3.8-4.852zm13.802 2.113c.687 0 1.25-.587 1.25-1.304 0-.718-.563-1.305-1.25-1.305H8.744c-.688 0-1.25.587-1.25 1.305 0 .717.562 1.304 1.25 1.304zM14.933 0c-.65 0-1.188.561-1.188 1.24 0 .678.538 1.239 1.188 1.239h3.663c1.875 0 3.6 1.317 3.95 3.235.475 2.583-1.412 4.853-3.8 4.853h-3.813c-.65 0-1.188.56-1.188 1.24 0 .678.538 1.239 1.188 1.239h3.813c3.65 0 6.576-3.275 6.226-7.162C24.659 2.492 21.734 0 18.47 0z"/></g></g></svg>