<svg width="21" height="21" viewBox="0 0 21 21" fill="none" xmlns="http://www.w3.org/2000/svg">
<path d="M17.4219 0.65625C18.151 0.34375 18.8151 0.5 19.4141 1.125C20.0391 1.72396 20.1953 2.38802 19.8828 3.11719L12.4219 19.3672C12.2135 19.8099 11.901 20.1224 11.4844 20.3047C11.0677 20.487 10.6641 20.5391 10.2734 20.4609C9.88281 20.3828 9.53125 20.1745 9.21875 19.8359C8.93229 19.4974 8.78906 19.0937 8.78906 18.625L8.78906 11.75L1.91406 11.75C1.26302 11.75 0.755208 11.5156 0.390625 11.0469C0.0520833 10.5521 -0.0520833 10.0182 0.078125 9.44531C0.208333 8.84635 0.572917 8.40365 1.17188 8.11719L17.4219 0.65625Z" fill="#3E74E7"/>
</svg>
