<svg width="12" height="12" viewBox="0 0 12 12" fill="none" xmlns="http://www.w3.org/2000/svg">
<path fill-rule="evenodd" clip-rule="evenodd" d="M3 0.0228271C3.55228 0.0228271 4 0.468841 4 1.01903C4 1.52992 3.61396 1.95098 3.11662 2.00853L3 2.01523C2.48716 2.01523 2.06449 2.3998 2.00673 2.89525L2 3.01143V8.98863C2 9.49952 2.38604 9.92058 2.88338 9.97813L3 9.98483H9C9.51284 9.98483 9.93551 9.60026 9.99327 9.10481L10 8.98863C10 8.43845 10.4477 7.99243 11 7.99243C11.5523 7.99243 12 8.43845 12 8.98863C12 10.5802 10.7511 11.8813 9.17627 11.9722L9 11.9772H3C1.40232 11.9772 0.0963391 10.7331 0.00509269 9.16423L0 8.98863V3.01143C0 1.36087 1.34315 0.0228271 3 0.0228271ZM11 0.0228271L11.081 0.0258158L11.2007 0.0429903V0.0429903L11.3121 0.0723763V0.0723763L11.4232 0.116145L11.5207 0.168268V0.168268L11.6168 0.234805L11.7071 0.314608V0.314608L11.8037 0.425983V0.425983L11.8753 0.536805L11.9063 0.597536V0.597536L11.9401 0.678675V0.678675L11.9642 0.754045V0.754045L11.9931 0.901381V0.901381L12 1.01903V1.01903V5.00383C12 5.55402 11.5523 6.00003 11 6.00003C10.4477 6.00003 10 5.55402 10 5.00383V3.42386L7.70711 5.70825C7.34662 6.06736 6.77939 6.09499 6.3871 5.79112L6.29289 5.70825C5.93241 5.34914 5.90468 4.78406 6.2097 4.39326L6.29289 4.29941L8.584 2.01523H7C6.44772 2.01523 6 1.56921 6 1.01903C6 0.468841 6.44772 0.0228271 7 0.0228271H11Z" fill="#5C6E99"/>
</svg>
