<svg width="24" height="24" viewBox="0 0 24 24" fill="none" xmlns="http://www.w3.org/2000/svg">
<path d="M8.125 18V8.65625H5.21875V18H8.125ZM6.65625 7.40625C7.59375 7.40625 8.34375 6.625 8.34375 5.6875C8.34375 4.78125 7.59375 4.03125 6.65625 4.03125C5.75 4.03125 5 4.78125 5 5.6875C5 6.625 5.75 7.40625 6.65625 7.40625ZM18.9688 18H19V12.875C19 10.375 18.4375 8.4375 15.5 8.4375C14.0938 8.4375 13.1562 9.21875 12.75 9.9375H12.7188V8.65625H9.9375V18H12.8438V13.375C12.8438 12.1562 13.0625 11 14.5625 11C16.0625 11 16.0938 12.375 16.0938 13.4688V18H18.9688Z" fill="#2E3B4D"/>
</svg>
