<svg width="16" height="12" viewBox="0 0 16 12" fill="none" xmlns="http://www.w3.org/2000/svg">
<path d="M15.6875 3.96875C15.75 3.90625 15.8125 3.89583 15.875 3.9375C15.9583 3.97917 16 4.04167 16 4.125V10.5C16 10.9167 15.8542 11.2708 15.5625 11.5625C15.2708 11.8542 14.9167 12 14.5 12H1.5C1.08333 12 0.729167 11.8542 0.4375 11.5625C0.145833 11.2708 0 10.9167 0 10.5V4.125C0 4.04167 0.03125 3.98958 0.09375 3.96875C0.177083 3.92708 0.25 3.92708 0.3125 3.96875C1 4.48958 2.60417 5.66667 5.125 7.5C5.16667 7.54167 5.30208 7.65625 5.53125 7.84375C5.78125 8.03125 5.97917 8.17708 6.125 8.28125C6.27083 8.36458 6.45833 8.47917 6.6875 8.625C6.91667 8.75 7.13542 8.84375 7.34375 8.90625C7.57292 8.96875 7.79167 9 8 9C8.1875 9 8.375 8.97917 8.5625 8.9375C8.75 8.875 8.92708 8.8125 9.09375 8.75C9.26042 8.66667 9.4375 8.5625 9.625 8.4375C9.8125 8.3125 9.96875 8.20833 10.0938 8.125C10.2188 8.02083 10.3646 7.90625 10.5312 7.78125C10.6979 7.65625 10.8125 7.5625 10.875 7.5C13.3333 5.72917 14.9375 4.55208 15.6875 3.96875ZM8 8C7.83333 8 7.625 7.94792 7.375 7.84375C7.14583 7.71875 6.95833 7.61458 6.8125 7.53125C6.66667 7.42708 6.44792 7.27083 6.15625 7.0625C5.88542 6.83333 5.73958 6.71875 5.71875 6.71875C3.17708 4.86458 1.36458 3.52083 0.28125 2.6875C0.09375 2.54167 0 2.34375 0 2.09375V1.5C0 1.08333 0.145833 0.729167 0.4375 0.4375C0.729167 0.145833 1.08333 0 1.5 0H14.5C14.9167 0 15.2708 0.145833 15.5625 0.4375C15.8542 0.729167 16 1.08333 16 1.5V2.09375C16 2.34375 15.9062 2.54167 15.7188 2.6875C14.6979 3.47917 12.8854 4.82292 10.2812 6.71875C10.2604 6.71875 10.1042 6.83333 9.8125 7.0625C9.54167 7.27083 9.33333 7.42708 9.1875 7.53125C9.04167 7.61458 8.84375 7.71875 8.59375 7.84375C8.36458 7.94792 8.16667 8 8 8Z" fill="#2E3B4D"/>
</svg>
