<svg width="24" height="24" viewBox="0 0 24 24" fill="none" xmlns="http://www.w3.org/2000/svg">
<path fill-rule="evenodd" clip-rule="evenodd" d="M0 3C0 2.44772 0.447715 2 1 2H4.91534C5.58533 2 6.17409 2.44433 6.35783 3.08863L9.75469 15H19.256L21.656 7H11.7317C11.1794 7 10.7317 6.55228 10.7317 6C10.7317 5.44772 11.1794 5 11.7317 5H22.328C23.3328 5 24.0534 5.9686 23.7647 6.93102L21.0647 15.931C20.8744 16.5655 20.2904 17 19.628 17H9.37735C8.70735 17 8.1186 16.5557 7.93486 15.9114L4.53799 4H1C0.447715 4 0 3.55228 0 3Z" fill="#8491A3"/>
<path fill-rule="evenodd" clip-rule="evenodd" d="M10 18C11.1046 18 12 18.8954 12 20C12 21.1046 11.1046 22 10 22C8.89543 22 8 21.1046 8 20C8 18.8954 8.89543 18 10 18Z" fill="#8491A3"/>
<path fill-rule="evenodd" clip-rule="evenodd" d="M19 18C20.1046 18 21 18.8954 21 20C21 21.1046 20.1046 22 19 22C17.8954 22 17 21.1046 17 20C17 18.8954 17.8954 18 19 18Z" fill="#8491A3"/>
</svg>
