<svg width="38" height="52" viewBox="0 0 38 52" fill="none" xmlns="http://www.w3.org/2000/svg">
<path fill-rule="evenodd" clip-rule="evenodd" d="M34.01 52C36.22 52 38 50.21 38 48V12.89C38 11.79 37.37 10.26 36.59 9.48L28.52 1.41C27.74 0.63 26.2 0 25.11 0H4C1.79 0 0 1.79 0 3.99V48C0 50.21 1.78 51.99 3.99 51.99H34.01V52ZM34 45.99C34 47.1 33.1 48 32.01 48H5.99C4.89 48 4 47.1 4 46L4.03 6.01C4.03 4.9 4.93 4 6.04 4H22.98C24.09 4 24.99 4.9 24.99 6V9C24.99 11.21 26.78 13 28.99 13H32.04C33.15 13 34.05 13.9 34.05 15.01L34 45.99ZM26.36 29.35C27.14 30.13 27.15 31.41 26.37 32.21L20.42 38.33C19.64 39.13 18.37 39.13 17.58 38.34L11.53 32.22C10.75 31.43 10.75 30.15 11.53 29.36C12.31 28.57 13.58 28.57 14.36 29.36L17 32.02V22.94C17 21.82 17.9 20.92 19 20.92C20.1 20.92 21 21.82 21 22.94V32L23.53 29.36C24.31 28.57 25.58 28.56 26.36 29.35Z" fill="#9EBEFA"/>
</svg>
