<svg width="24" height="24" viewBox="0 0 24 24" fill="none" xmlns="http://www.w3.org/2000/svg">
<path fill-rule="evenodd" clip-rule="evenodd" d="M14.9056 16.3199C13.551 17.3729 11.8487 18 10 18C5.58172 18 2 14.4183 2 10C2 5.58172 5.58172 2 10 2C14.4183 2 18 5.58172 18 10C18 11.8487 17.3729 13.551 16.3199 14.9056L16.9165 15.5023C17.3277 15.4795 17.7465 15.6252 18.0607 15.9393L21.5607 19.4393C21.924 19.8026 22.0619 20.3059 21.9746 20.7755C22.049 21.1 21.9598 21.4544 21.7071 21.7071C21.4544 21.9598 21.1 22.049 20.7755 21.9746C20.3059 22.0619 19.8026 21.924 19.4393 21.5607L15.9393 18.0607C15.6252 17.7465 15.4795 17.3277 15.5023 16.9165L14.9056 16.3199ZM16 10C16 13.3137 13.3137 16 10 16C6.68629 16 4 13.3137 4 10C4 6.68629 6.68629 4 10 4C13.3137 4 16 6.68629 16 10Z" fill="#8491A3"/>
</svg>
