<svg width="64" height="64" viewBox="0 0 64 64" fill="none" xmlns="http://www.w3.org/2000/svg">
<path fill-rule="evenodd" clip-rule="evenodd" d="M32 0C49.6731 0 64 14.3269 64 32C64 49.6731 49.6731 64 32 64C14.3269 64 0 49.6731 0 32C0 14.3269 14.3269 0 32 0ZM32 5.33333C17.2724 5.33333 5.33333 17.2724 5.33333 32C5.33333 46.7276 17.2724 58.6667 32 58.6667C46.7276 58.6667 58.6667 46.7276 58.6667 32C58.6667 17.2724 46.7276 5.33333 32 5.33333Z" fill="white"/>
<path fill-rule="evenodd" clip-rule="evenodd" d="M28.3118 21.7404L41.284 29.5502C42.6323 30.3619 43.0695 32.1167 42.2605 33.4696C42.0201 33.8716 41.6847 34.2081 41.284 34.4494L28.3118 42.2591C26.9635 43.0709 25.2147 42.6322 24.4057 41.2793C24.1402 40.8353 24 40.3273 24 39.8095V24.19C24 22.6123 25.2747 21.3333 26.847 21.3333C27.3631 21.3333 27.8694 21.474 28.3118 21.7404Z" fill="white"/>
</svg>
