<svg width="20" height="20" viewBox="0 0 20 20" fill="none" xmlns="http://www.w3.org/2000/svg">
<path fill-rule="evenodd" clip-rule="evenodd" d="M10 0C4.48 0 0 4.48 0 10C0 15.52 4.48 20 10 20C15.52 20 20 15.52 20 10C20 4.48 15.52 0 10 0ZM9.00005 17.9299C5.05005 17.4399 2.00005 14.0799 2.00005 9.99991C2.00005 9.37991 2.08005 8.78991 2.21005 8.20991L7.00005 12.9999V13.9999C7.00005 15.0999 7.90005 15.9999 9.00005 15.9999V17.9299ZM14.0002 13.9998C14.9002 13.9998 15.6402 14.5798 15.9002 15.3898C17.2002 13.9698 18.0002 12.0798 18.0002 9.99979C18.0002 6.64979 15.9302 3.77979 13.0002 2.58979V2.99979C13.0002 4.09979 12.1002 4.99979 11.0002 4.99979H9.00016V6.99979C9.00016 7.54979 8.55016 7.99979 8.00016 7.99979H6.00016V9.99979H12.0002C12.5502 9.99979 13.0002 10.4498 13.0002 10.9998V13.9998H14.0002Z" fill="white"/>
</svg>
