<svg width="20" height="12" viewBox="0 0 20 12" fill="none" xmlns="http://www.w3.org/2000/svg">
<path d="M1.59999 7.2C0.937252 7.2 0.399994 6.66274 0.399994 6C0.399994 5.33726 0.937252 4.8 1.59999 4.8L18.4 4.8C19.0627 4.8 19.6 5.33726 19.6 6C19.6 6.66274 19.0627 7.2 18.4 7.2L1.59999 7.2Z" fill="#3E74E7"/>
<path d="M12.7515 9.95147C12.2828 10.4201 12.2828 11.1799 12.7515 11.6485C13.2201 12.1172 13.9799 12.1172 14.4485 11.6485L19.2485 6.84853C19.7171 6.3799 19.7171 5.6201 19.2485 5.15147L14.4485 0.351472C13.9799 -0.117156 13.2201 -0.117156 12.7515 0.351472C12.2828 0.820101 12.2828 1.5799 12.7515 2.04853L16.7029 6L12.7515 9.95147Z" fill="#3E74E7"/>
</svg>
