<svg width="20" height="20" viewBox="0 0 20 20" fill="none" xmlns="http://www.w3.org/2000/svg">
<path fill-rule="evenodd" clip-rule="evenodd" d="M10 18.7C14.8049 18.7 18.7 14.8049 18.7 10C18.7 5.19512 14.8049 1.3 10 1.3C5.19512 1.3 1.3 5.19512 1.3 10C1.3 14.8049 5.19512 18.7 10 18.7ZM10 20C15.5228 20 20 15.5228 20 10C20 4.47715 15.5228 0 10 0C4.47715 0 0 4.47715 0 10C0 15.5228 4.47715 20 10 20Z" fill="#8491A3"/>
<path d="M9 13.5C9 13.2239 9.22386 13 9.5 13H10.5C10.7761 13 11 13.2239 11 13.5V14.5C11 14.7761 10.7761 15 10.5 15H9.5C9.22386 15 9 14.7761 9 14.5V13.5Z" fill="#8491A3"/>
<path d="M11.5 6.78146C11.5 7.1764 11.3266 7.54092 11.0117 7.80802L9.35589 9.2132C9.28872 9.2702 9.25 9.35384 9.25 9.44194V10.7C9.25 10.8657 9.38431 11 9.55 11H10.45C10.6157 11 10.75 10.8657 10.75 10.7V10.0544C10.75 9.96627 10.7887 9.88263 10.8559 9.82563L12.0244 8.83405C12.6443 8.308 13 7.55994 13 6.78146C13 5.24767 11.6543 4 10 4C8.4548 4 7.17883 5.08854 7.01726 6.48203C6.99818 6.64661 7.13431 6.78146 7.3 6.78146H8.2C8.36569 6.78146 8.49649 6.64532 8.53452 6.48405C8.68179 5.85959 9.28291 5.39073 10 5.39073C10.8271 5.39073 11.5 6.01456 11.5 6.78146Z" fill="#8491A3"/>
</svg>
