<svg width="16" height="16" viewBox="0 0 16 16" fill="none" xmlns="http://www.w3.org/2000/svg">
<path fill-rule="evenodd" clip-rule="evenodd" d="M15 10C15.5128 10 15.9355 10.386 15.9933 10.8834L16 11V13C16 14.5977 14.7511 15.9037 13.1763 15.9949L13 16L3 16C1.40232 16 0.0963391 14.7511 0.00509269 13.1763L0 13L0 11C0 10.4477 0.447715 10 1 10C1.51284 10 1.93551 10.386 1.99327 10.8834L2 11L2 13C2 13.5128 2.38604 13.9355 2.88338 13.9933L3 14L13 14C13.5128 14 13.9355 13.614 13.9933 13.1166L14 13V11C14 10.4477 14.4477 10 15 10ZM8 0C8.55229 0 9 0.447715 9 1L9 8.585L10.2929 7.29289C10.6534 6.93241 11.2206 6.90468 11.6129 7.2097L11.7071 7.29289C12.0676 7.65338 12.0953 8.22061 11.7903 8.6129L11.7071 8.70711L8.70711 11.7071C8.34662 12.0676 7.77939 12.0953 7.3871 11.7903L7.29289 11.7071L4.29289 8.70711C3.90237 8.31658 3.90237 7.68342 4.29289 7.29289C4.65338 6.93241 5.22061 6.90468 5.6129 7.2097L5.70711 7.29289L7 8.585L7 1C7 0.447715 7.44772 0 8 0Z" fill="white"/>
</svg>
