<svg width="42" height="28" viewBox="0 0 42 28" fill="none" xmlns="http://www.w3.org/2000/svg">
<mask id="path-1-inside-1" fill="white">
<path d="M40.5221 9.25081L21.0761 0.10728C20.7678 -0.0357599 20.4118 -0.0357599 20.1035 0.10728L0.657532 9.25081C0.0849446 9.51855 -0.160974 10.2007 0.110638 10.7729C0.224421 11.015 0.418954 11.2094 0.657532 11.3194L6.86423 14.2389C6.86423 14.2389 6.86423 14.2389 6.86423 14.2829V20.4152C6.86423 23.8262 13.1957 28 20.5916 28C27.9876 28 34.3191 23.8262 34.3191 20.4152V14.2865C34.3191 14.2865 34.3191 14.2865 34.3191 14.2425L40.5294 11.3231C41.102 11.0553 41.3479 10.3731 41.0763 9.80096C40.9625 9.5589 40.768 9.36451 40.5294 9.25448L40.5221 9.25081ZM32.0287 20.4189C32.0287 22.1867 27.081 25.7187 20.588 25.7187C14.095 25.7187 9.14724 22.1867 9.14724 20.4189V15.3135L20.0998 20.4556C20.4081 20.5986 20.7642 20.5986 21.0725 20.4556L32.025 15.3135V20.4189H32.0287ZM20.5916 18.1669L3.83246 10.2851L20.5916 2.40325L37.3508 10.2851L20.5916 18.1669Z"/>
</mask>
<path d="M40.5221 9.25081L21.0761 0.10728C20.7678 -0.0357599 20.4118 -0.0357599 20.1035 0.10728L0.657532 9.25081C0.0849446 9.51855 -0.160974 10.2007 0.110638 10.7729C0.224421 11.015 0.418954 11.2094 0.657532 11.3194L6.86423 14.2389C6.86423 14.2389 6.86423 14.2389 6.86423 14.2829V20.4152C6.86423 23.8262 13.1957 28 20.5916 28C27.9876 28 34.3191 23.8262 34.3191 20.4152V14.2865C34.3191 14.2865 34.3191 14.2865 34.3191 14.2425L40.5294 11.3231C41.102 11.0553 41.3479 10.3731 41.0763 9.80096C40.9625 9.5589 40.768 9.36451 40.5294 9.25448L40.5221 9.25081ZM32.0287 20.4189C32.0287 22.1867 27.081 25.7187 20.588 25.7187C14.095 25.7187 9.14724 22.1867 9.14724 20.4189V15.3135L20.0998 20.4556C20.4081 20.5986 20.7642 20.5986 21.0725 20.4556L32.025 15.3135V20.4189H32.0287ZM20.5916 18.1669L3.83246 10.2851L20.5916 2.40325L37.3508 10.2851L20.5916 18.1669Z" fill="#9477FF"/>
<path d="M40.5221 9.25081L41.8631 6.56723L41.8311 6.5512L41.7986 6.53595L40.5221 9.25081ZM21.0761 0.10728L22.3527 -2.60758L22.3457 -2.61086L22.3387 -2.61411L21.0761 0.10728ZM20.1035 0.10728L18.8409 -2.61411L18.8339 -2.61086L18.8269 -2.60758L20.1035 0.10728ZM0.657532 9.25081L1.92827 11.9684L1.93407 11.9657L0.657532 9.25081ZM0.110638 10.7729L2.82568 9.4967L2.82077 9.48636L0.110638 10.7729ZM0.657532 11.3194L1.93445 8.6047L1.92421 8.59989L1.91393 8.59515L0.657532 11.3194ZM6.86423 14.2389L5.58732 16.9535L9.86423 18.9653V14.2389H6.86423ZM34.3191 14.2425L33.0428 11.5276L31.3191 12.3379V14.2425H34.3191ZM40.5294 11.3231L39.2587 8.60547L39.2531 8.60808L40.5294 11.3231ZM41.0763 9.80096L38.3613 11.0772L38.3662 11.0875L41.0763 9.80096ZM40.5294 9.25448L39.1884 11.9381L39.2304 11.959L39.273 11.9787L40.5294 9.25448ZM32.0287 20.4189H35.0287V17.4189H32.0287V20.4189ZM9.14724 15.3135L10.4222 12.5979L6.14724 10.5909V15.3135H9.14724ZM20.0998 20.4556L18.8249 23.1712L18.8373 23.177L20.0998 20.4556ZM21.0725 20.4556L22.335 23.177L22.3474 23.1712L21.0725 20.4556ZM32.025 15.3135H35.025V10.5908L30.7501 12.5979L32.025 15.3135ZM32.025 20.4189H29.025V23.4189H32.025V20.4189ZM20.5916 18.1669L19.3149 20.8817L20.5916 21.4822L21.8684 20.8817L20.5916 18.1669ZM3.83246 10.2851L2.55571 7.57034L-3.21669 10.2851L2.55571 12.9999L3.83246 10.2851ZM20.5916 2.40325L21.8684 -0.311509L20.5916 -0.911965L19.3149 -0.311509L20.5916 2.40325ZM37.3508 10.2851L38.6276 12.9999L44.4 10.2851L38.6276 7.57034L37.3508 10.2851ZM41.7986 6.53595L22.3527 -2.60758L19.7996 2.82214L39.2456 11.9657L41.7986 6.53595ZM22.3387 -2.61411C21.2297 -3.12863 19.95 -3.12863 18.8409 -2.61411L21.366 2.82867C20.8736 3.05711 20.306 3.05711 19.8136 2.82867L22.3387 -2.61411ZM18.8269 -2.60758L-0.619001 6.53595L1.93407 11.9657L21.38 2.82214L18.8269 -2.60758ZM-0.613203 6.53323C-2.69198 7.50526 -3.58498 9.98348 -2.59949 12.0594L2.82077 9.48636C3.26303 10.418 2.86187 11.5318 1.92827 11.9684L-0.613203 6.53323ZM-2.60438 12.0491C-2.196 12.9179 -1.49156 13.6319 -0.598866 14.0436L1.91393 8.59515C2.32946 8.78679 2.64484 9.11204 2.82566 9.49671L-2.60438 12.0491ZM-0.619385 14.0341L5.58732 16.9535L8.14115 11.5242L1.93445 8.6047L-0.619385 14.0341ZM6.86423 14.2389C9.86423 14.2389 6.86423 14.2389 3.86423 14.2389V14.2389C3.86423 14.2389 3.86423 14.2389 3.86423 14.2389V14.2389C3.86423 14.2389 3.86423 14.2389 3.86423 14.2389C3.86423 14.2389 3.86423 14.2389 3.86423 14.2389C3.86423 14.2389 3.86423 14.2389 3.86423 14.2389C3.86423 14.2389 3.86423 14.2389 3.86423 14.2389V14.2389C3.86423 14.2389 3.86423 14.2389 3.86423 14.2389C3.86423 14.2389 3.86423 14.2389 3.86423 14.2389C3.86423 14.2389 3.86423 14.2389 3.86423 14.2389C3.86423 14.2389 3.86423 14.2389 3.86423 14.2389C3.86423 14.2389 3.86423 14.2389 3.86423 14.2389C3.86423 14.2389 3.86423 14.2389 3.86423 14.2389V14.2389V14.2389C3.86423 14.2389 3.86423 14.2389 3.86423 14.2389V14.2389C3.86423 14.2389 3.86423 14.2389 3.86423 14.2389V14.2389C3.86423 14.2389 3.86423 14.2389 3.86423 14.2389C3.86423 14.2389 3.86423 14.2389 3.86423 14.2389C3.86423 14.2389 3.86423 14.2389 3.86423 14.2389C3.86423 14.2389 3.86423 14.2389 3.86423 14.2389C3.86423 14.2389 3.86423 14.2389 3.86423 14.2389C3.86423 14.2389 3.86423 14.2389 3.86423 14.2389C3.86423 14.2389 3.86423 14.2389 3.86423 14.2389C3.86423 14.2389 3.86423 14.2389 3.86423 14.2389C3.86423 14.2389 3.86423 14.2389 3.86423 14.2389C3.86423 14.2389 3.86423 14.2389 3.86423 14.2389C3.86423 14.2389 3.86423 14.2389 3.86423 14.2389C3.86423 14.2389 3.86423 14.2389 3.86423 14.2389C3.86423 14.2389 3.86423 14.2389 3.86423 14.2389C3.86423 14.2389 3.86423 14.2389 3.86423 14.2389C3.86423 14.2389 3.86423 14.2389 3.86423 14.2389C3.86423 14.2389 3.86423 14.2389 3.86423 14.2389C3.86423 14.2389 3.86423 14.2389 3.86423 14.2389C3.86423 14.2389 3.86423 14.2389 3.86423 14.2389C3.86423 14.2389 3.86423 14.2389 3.86423 14.2389C3.86423 14.2389 3.86423 14.2389 3.86423 14.2389C3.86423 14.2389 3.86423 14.2389 3.86423 14.2389C3.86423 14.2389 3.86423 14.2389 3.86423 14.2389C3.86423 14.2389 3.86423 14.2389 3.86423 14.2389C3.86423 14.2389 3.86423 14.2389 3.86423 14.2389C3.86423 14.2389 3.86423 14.2389 3.86423 14.2389C3.86423 14.2389 3.86423 14.239 3.86423 14.239C3.86423 14.239 3.86423 14.239 3.86423 14.239C3.86423 14.239 3.86423 14.239 3.86423 14.239C3.86423 14.239 3.86423 14.239 3.86423 14.239C3.86423 14.239 3.86423 14.239 3.86423 14.239C3.86423 14.239 3.86423 14.239 3.86423 14.239C3.86423 14.239 3.86423 14.239 3.86423 14.239C3.86423 14.239 3.86423 14.239 3.86423 14.239C3.86423 14.239 3.86423 14.239 3.86423 14.239C3.86423 14.239 3.86423 14.239 3.86423 14.239C3.86423 14.239 3.86423 14.239 3.86423 14.239C3.86423 14.239 3.86423 14.239 3.86423 14.239C3.86423 14.239 3.86423 14.239 3.86423 14.239C3.86423 14.239 3.86423 14.239 3.86423 14.239C3.86423 14.239 3.86423 14.239 3.86423 14.239C3.86423 14.239 3.86423 14.239 3.86423 14.239C3.86423 14.239 3.86423 14.239 3.86423 14.239C3.86423 14.239 3.86423 14.239 3.86423 14.239C3.86423 14.239 3.86423 14.2391 3.86423 14.2391C3.86423 14.2391 3.86423 14.2391 3.86423 14.2391C3.86423 14.2391 3.86423 14.2391 3.86423 14.2391C3.86423 14.2391 3.86423 14.2391 3.86423 14.2391C3.86423 14.2391 3.86423 14.2391 3.86423 14.2391C3.86423 14.2391 3.86423 14.2391 3.86423 14.2391C3.86423 14.2391 3.86423 14.2391 3.86423 14.2391C3.86423 14.2391 3.86423 14.2391 3.86423 14.2391C3.86423 14.2391 3.86423 14.2391 3.86423 14.2391C3.86423 14.2391 3.86423 14.2391 3.86423 14.2391C3.86423 14.2391 3.86423 14.2391 3.86423 14.2391C3.86423 14.2391 3.86423 14.2391 3.86423 14.2391C3.86423 14.2391 3.86423 14.2391 3.86423 14.2391C3.86423 14.2392 3.86423 14.2392 3.86423 14.2392C3.86423 14.2392 3.86423 14.2392 3.86423 14.2392C3.86423 14.2392 3.86423 14.2392 3.86423 14.2392C3.86423 14.2392 3.86423 14.2392 3.86423 14.2392C3.86423 14.2392 3.86423 14.2392 3.86423 14.2392C3.86423 14.2392 3.86423 14.2392 3.86423 14.2392C3.86423 14.2392 3.86423 14.2392 3.86423 14.2392C3.86423 14.2392 3.86423 14.2392 3.86423 14.2392C3.86423 14.2392 3.86423 14.2392 3.86423 14.2392C3.86423 14.2392 3.86423 14.2392 3.86423 14.2392C3.86423 14.2393 3.86423 14.2393 3.86423 14.2393C3.86423 14.2393 3.86423 14.2393 3.86423 14.2393C3.86423 14.2393 3.86423 14.2393 3.86423 14.2393C3.86423 14.2393 3.86423 14.2393 3.86423 14.2393C3.86423 14.2393 3.86423 14.2393 3.86423 14.2393C3.86423 14.2393 3.86423 14.2393 3.86423 14.2393C3.86423 14.2393 3.86423 14.2393 3.86423 14.2393C3.86423 14.2393 3.86423 14.2393 3.86423 14.2393C3.86423 14.2393 3.86423 14.2394 3.86423 14.2394C3.86423 14.2394 3.86423 14.2394 3.86423 14.2394C3.86423 14.2394 3.86423 14.2394 3.86423 14.2394C3.86423 14.2394 3.86423 14.2394 3.86423 14.2394C3.86423 14.2394 3.86423 14.2394 3.86423 14.2394C3.86423 14.2394 3.86423 14.2394 3.86423 14.2394C3.86423 14.2394 3.86423 14.2394 3.86423 14.2394C3.86423 14.2394 3.86423 14.2394 3.86423 14.2395C3.86423 14.2395 3.86423 14.2395 3.86423 14.2395C3.86423 14.2395 3.86423 14.2395 3.86423 14.2395C3.86423 14.2395 3.86423 14.2395 3.86423 14.2395C3.86423 14.2395 3.86423 14.2395 3.86423 14.2395C3.86423 14.2395 3.86423 14.2395 3.86423 14.2395C3.86423 14.2395 3.86423 14.2395 3.86423 14.2395C3.86423 14.2396 3.86423 14.2396 3.86423 14.2396C3.86423 14.2396 3.86423 14.2396 3.86423 14.2396C3.86423 14.2396 3.86423 14.2396 3.86423 14.2396C3.86423 14.2396 3.86423 14.2396 3.86423 14.2396C3.86423 14.2396 3.86423 14.2396 3.86423 14.2396C3.86423 14.2396 3.86423 14.2396 3.86423 14.2396C3.86423 14.2397 3.86423 14.2397 3.86423 14.2397C3.86423 14.2397 3.86423 14.2397 3.86423 14.2397C3.86423 14.2397 3.86423 14.2397 3.86423 14.2397C3.86423 14.2397 3.86423 14.2397 3.86423 14.2397C3.86423 14.2397 3.86423 14.2397 3.86423 14.2397C3.86423 14.2397 3.86423 14.2398 3.86423 14.2398C3.86423 14.2398 3.86423 14.2398 3.86423 14.2398C3.86423 14.2398 3.86423 14.2398 3.86423 14.2398C3.86423 14.2398 3.86423 14.2398 3.86423 14.2398C3.86423 14.2398 3.86423 14.2398 3.86423 14.2398C3.86423 14.2398 3.86423 14.2399 3.86423 14.2399C3.86423 14.2399 3.86423 14.2399 3.86423 14.2399C3.86423 14.2399 3.86423 14.2399 3.86423 14.2399C3.86423 14.2399 3.86423 14.2399 3.86423 14.2399C3.86423 14.2399 3.86423 14.2399 3.86423 14.2399C3.86423 14.24 3.86423 14.24 3.86423 14.24C3.86423 14.24 3.86423 14.24 3.86423 14.24C3.86423 14.24 3.86423 14.24 3.86423 14.24C3.86423 14.24 3.86423 14.24 3.86423 14.24C3.86423 14.24 3.86423 14.24 3.86423 14.2401C3.86423 14.2401 3.86423 14.2401 3.86423 14.2401C3.86423 14.2401 3.86423 14.2401 3.86423 14.2401C3.86423 14.2401 3.86423 14.2401 3.86423 14.2401C3.86423 14.2401 3.86423 14.2401 3.86423 14.2402C3.86423 14.2402 3.86423 14.2402 3.86423 14.2402C3.86423 14.2402 3.86423 14.2402 3.86423 14.2402C3.86423 14.2402 3.86423 14.2402 3.86423 14.2402C3.86423 14.2402 3.86423 14.2402 3.86423 14.2403C3.86423 14.2403 3.86423 14.2403 3.86423 14.2403C3.86423 14.2403 3.86423 14.2403 3.86423 14.2403C3.86423 14.2403 3.86423 14.2403 3.86423 14.2403C3.86423 14.2403 3.86423 14.2403 3.86423 14.2404C3.86423 14.2404 3.86423 14.2404 3.86423 14.2404C3.86423 14.2404 3.86423 14.2404 3.86423 14.2404C3.86423 14.2404 3.86423 14.2404 3.86423 14.2404C3.86423 14.2405 3.86423 14.2405 3.86423 14.2405C3.86423 14.2405 3.86423 14.2405 3.86423 14.2405C3.86423 14.2405 3.86423 14.2405 3.86423 14.2405C3.86423 14.2405 3.86423 14.2405 3.86423 14.2406C3.86423 14.2406 3.86423 14.2406 3.86423 14.2406C3.86423 14.2406 3.86423 14.2406 3.86423 14.2406C3.86423 14.2406 3.86423 14.2406 3.86423 14.2406C3.86423 14.2407 3.86423 14.2407 3.86423 14.2407C3.86423 14.2407 3.86423 14.2407 3.86423 14.2407C3.86423 14.2407 3.86423 14.2407 3.86423 14.2407C3.86423 14.2407 3.86423 14.2408 3.86423 14.2408C3.86423 14.2408 3.86423 14.2408 3.86423 14.2408C3.86423 14.2408 3.86423 14.2408 3.86423 14.2408C3.86423 14.2408 3.86423 14.2409 3.86423 14.2409C3.86423 14.2409 3.86423 14.2409 3.86423 14.2409C3.86423 14.2409 3.86423 14.2409 3.86423 14.2409C3.86423 14.2409 3.86423 14.241 3.86423 14.241C3.86423 14.241 3.86423 14.241 3.86423 14.241C3.86423 14.241 3.86423 14.241 3.86423 14.241C3.86423 14.241 3.86423 14.2411 3.86423 14.2411C3.86423 14.2411 3.86423 14.2411 3.86423 14.2411C3.86423 14.2411 3.86423 14.2411 3.86423 14.2411C3.86423 14.2412 3.86423 14.2412 3.86423 14.2412C3.86423 14.2412 3.86423 14.2412 3.86423 14.2412C3.86423 14.2412 3.86423 14.2412 3.86423 14.2413C3.86423 14.2413 3.86423 14.2413 3.86423 14.2413C3.86423 14.2413 3.86423 14.2413 3.86423 14.2413C3.86423 14.2413 3.86423 14.2414 3.86423 14.2414C3.86423 14.2414 3.86423 14.2414 3.86423 14.2414C3.86423 14.2414 3.86423 14.2414 3.86423 14.2414C3.86423 14.2415 3.86423 14.2415 3.86423 14.2415C3.86423 14.2415 3.86423 14.2415 3.86423 14.2415C3.86423 14.2415 3.86423 14.2415 3.86423 14.2416C3.86423 14.2416 3.86423 14.2416 3.86423 14.2416C3.86423 14.2416 3.86423 14.2416 3.86423 14.2416C3.86423 14.2417 3.86423 14.2417 3.86423 14.2417C3.86423 14.2417 3.86423 14.2417 3.86423 14.2417C3.86423 14.2417 3.86423 14.2418 3.86423 14.2418C3.86423 14.2418 3.86423 14.2418 3.86423 14.2418C3.86423 14.2418 3.86423 14.2418 3.86423 14.2419C3.86423 14.2419 3.86423 14.2419 3.86423 14.2419C3.86423 14.2419 3.86423 14.2419 3.86423 14.2419C3.86423 14.242 3.86423 14.242 3.86423 14.242C3.86423 14.242 3.86423 14.242 3.86423 14.242C3.86423 14.242 3.86423 14.2421 3.86423 14.2421C3.86423 14.2421 3.86423 14.2421 3.86423 14.2421C3.86423 14.2421 3.86423 14.2421 3.86423 14.2422C3.86423 14.2422 3.86423 14.2422 3.86423 14.2422C3.86423 14.2422 3.86423 14.2422 3.86423 14.2423C3.86423 14.2423 3.86423 14.2423 3.86423 14.2423C3.86423 14.2423 3.86423 14.2423 3.86423 14.2423C3.86423 14.2424 3.86423 14.2424 3.86423 14.2424C3.86423 14.2424 3.86423 14.2424 3.86423 14.2424C3.86423 14.2425 3.86423 14.2425 3.86423 14.2425C3.86423 14.2425 3.86423 14.2425 3.86423 14.2425C3.86423 14.2426 3.86423 14.2426 3.86423 14.2426C3.86423 14.2426 3.86423 14.2426 3.86423 14.2426C3.86423 14.2427 3.86423 14.2427 3.86423 14.2427C3.86423 14.2427 3.86423 14.2427 3.86423 14.2427C3.86423 14.2428 3.86423 14.2428 3.86423 14.2428C3.86423 14.2428 3.86423 14.2428 3.86423 14.2428C3.86423 14.2429 3.86423 14.2429 3.86423 14.2429C3.86423 14.2429 3.86423 14.2429 3.86423 14.243C3.86423 14.243 3.86423 14.243 3.86423 14.243C3.86423 14.243 3.86423 14.243 3.86423 14.2431C3.86423 14.2431 3.86423 14.2431 3.86423 14.2431C3.86423 14.2431 3.86423 14.2432 3.86423 14.2432C3.86423 14.2432 3.86423 14.2432 3.86423 14.2432C3.86423 14.2432 3.86423 14.2433 3.86423 14.2433C3.86423 14.2433 3.86423 14.2433 3.86423 14.2433C3.86423 14.2434 3.86423 14.2434 3.86423 14.2434C3.86423 14.2434 3.86423 14.2434 3.86423 14.2434C3.86423 14.2435 3.86423 14.2435 3.86423 14.2435C3.86423 14.2435 3.86423 14.2435 3.86423 14.2436C3.86423 14.2436 3.86423 14.2436 3.86423 14.2436C3.86423 14.2436 3.86423 14.2437 3.86423 14.2437C3.86423 14.2437 3.86423 14.2437 3.86423 14.2437C3.86423 14.2438 3.86423 14.2438 3.86423 14.2438C3.86423 14.2438 3.86423 14.2438 3.86423 14.2439C3.86423 14.2439 3.86423 14.2439 3.86423 14.2439C3.86423 14.2439 3.86423 14.244 3.86423 14.244C3.86423 14.244 3.86423 14.244 3.86423 14.244C3.86423 14.2441 3.86423 14.2441 3.86423 14.2441C3.86423 14.2441 3.86423 14.2441 3.86423 14.2442C3.86423 14.2442 3.86423 14.2442 3.86423 14.2442C3.86423 14.2443 3.86423 14.2443 3.86423 14.2443C3.86423 14.2443 3.86423 14.2443 3.86423 14.2444C3.86423 14.2444 3.86423 14.2444 3.86423 14.2444C3.86423 14.2444 3.86423 14.2445 3.86423 14.2445C3.86423 14.2445 3.86423 14.2445 3.86423 14.2446C3.86423 14.2446 3.86423 14.2446 3.86423 14.2446C3.86423 14.2446 3.86423 14.2447 3.86423 14.2447C3.86423 14.2447 3.86423 14.2447 3.86423 14.2448C3.86423 14.2448 3.86423 14.2448 3.86423 14.2448C3.86423 14.2448 3.86423 14.2449 3.86423 14.2449C3.86423 14.2449 3.86423 14.2449 3.86423 14.245C3.86423 14.245 3.86423 14.245 3.86423 14.245C3.86423 14.2451 3.86423 14.2451 3.86423 14.2451C3.86423 14.2451 3.86423 14.2451 3.86423 14.2452C3.86423 14.2452 3.86423 14.2452 3.86423 14.2452C3.86423 14.2453 3.86423 14.2453 3.86423 14.2453C3.86423 14.2453 3.86423 14.2454 3.86423 14.2454C3.86423 14.2454 3.86423 14.2454 3.86423 14.2455C3.86423 14.2455 3.86423 14.2455 3.86423 14.2455C3.86423 14.2456 3.86423 14.2456 3.86423 14.2456C3.86423 14.2456 3.86423 14.2457 3.86423 14.2457C3.86423 14.2457 3.86423 14.2457 3.86423 14.2458C3.86423 14.2458 3.86423 14.2458 3.86423 14.2458C3.86423 14.2459 3.86423 14.2459 3.86423 14.2459C3.86423 14.2459 3.86423 14.246 3.86423 14.246C3.86423 14.246 3.86423 14.246 3.86423 14.2461C3.86423 14.2461 3.86423 14.2461 3.86423 14.2461C3.86423 14.2462 3.86423 14.2462 3.86423 14.2462C3.86423 14.2462 3.86423 14.2463 3.86423 14.2463C3.86423 14.2463 3.86423 14.2463 3.86423 14.2464C3.86423 14.2464 3.86423 14.2464 3.86423 14.2464C3.86423 14.2465 3.86423 14.2465 3.86423 14.2465C3.86423 14.2466 3.86423 14.2466 3.86423 14.2466C3.86423 14.2466 3.86423 14.2467 3.86423 14.2467C3.86423 14.2467 3.86423 14.2467 3.86423 14.2468C3.86423 14.2468 3.86423 14.2468 3.86423 14.2469C3.86423 14.2469 3.86423 14.2469 3.86423 14.2469C3.86423 14.247 3.86423 14.247 3.86423 14.247C3.86423 14.2471 3.86423 14.2471 3.86423 14.2471C3.86423 14.2471 3.86423 14.2472 3.86423 14.2472C3.86423 14.2472 3.86423 14.2472 3.86423 14.2473C3.86423 14.2473 3.86423 14.2473 3.86423 14.2474C3.86423 14.2474 3.86423 14.2474 3.86423 14.2474C3.86423 14.2475 3.86423 14.2475 3.86423 14.2475C3.86423 14.2476 3.86423 14.2476 3.86423 14.2476C3.86423 14.2477 3.86423 14.2477 3.86423 14.2477C3.86423 14.2477 3.86423 14.2478 3.86423 14.2478C3.86423 14.2478 3.86423 14.2479 3.86423 14.2479C3.86423 14.2479 3.86423 14.248 3.86423 14.248C3.86423 14.248 3.86423 14.248 3.86423 14.2481C3.86423 14.2481 3.86423 14.2481 3.86423 14.2482C3.86423 14.2482 3.86423 14.2482 3.86423 14.2483C3.86423 14.2483 3.86423 14.2483 3.86423 14.2483C3.86423 14.2484 3.86423 14.2484 3.86423 14.2484C3.86423 14.2485 3.86423 14.2485 3.86423 14.2485C3.86423 14.2486 3.86423 14.2486 3.86423 14.2486C3.86423 14.2487 3.86423 14.2487 3.86423 14.2487C3.86423 14.2488 3.86423 14.2488 3.86423 14.2488C3.86423 14.2488 3.86423 14.2489 3.86423 14.2489C3.86423 14.2489 3.86423 14.249 3.86423 14.249C3.86423 14.249 3.86423 14.2491 3.86423 14.2491C3.86423 14.2491 3.86423 14.2492 3.86423 14.2492C3.86423 14.2492 3.86423 14.2493 3.86423 14.2493C3.86423 14.2493 3.86423 14.2494 3.86423 14.2494C3.86423 14.2494 3.86423 14.2495 3.86423 14.2495C3.86423 14.2495 3.86423 14.2496 3.86423 14.2496C3.86423 14.2496 3.86423 14.2497 3.86423 14.2497C3.86423 14.2497 3.86423 14.2498 3.86423 14.2498C3.86423 14.2498 3.86423 14.2499 3.86423 14.2499C3.86423 14.2499 3.86423 14.25 3.86423 14.25C3.86423 14.25 3.86423 14.2501 3.86423 14.2501C3.86423 14.2501 3.86423 14.2502 3.86423 14.2502C3.86423 14.2503 3.86423 14.2503 3.86423 14.2503C3.86423 14.2504 3.86423 14.2504 3.86423 14.2504C3.86423 14.2505 3.86423 14.2505 3.86423 14.2505C3.86423 14.2506 3.86423 14.2506 3.86423 14.2506C3.86423 14.2507 3.86423 14.2507 3.86423 14.2507C3.86423 14.2508 3.86423 14.2508 3.86423 14.2509C3.86423 14.2509 3.86423 14.2509 3.86423 14.251C3.86423 14.251 3.86423 14.251 3.86423 14.2511C3.86423 14.2511 3.86423 14.2511 3.86423 14.2512C3.86423 14.2512 3.86423 14.2513 3.86423 14.2513C3.86423 14.2513 3.86423 14.2514 3.86423 14.2514C3.86423 14.2514 3.86423 14.2515 3.86423 14.2515C3.86423 14.2516 3.86423 14.2516 3.86423 14.2516C3.86423 14.2517 3.86423 14.2517 3.86423 14.2517C3.86423 14.2518 3.86423 14.2518 3.86423 14.2519C3.86423 14.2519 3.86423 14.2519 3.86423 14.252C3.86423 14.252 3.86423 14.2521 3.86423 14.2521C3.86423 14.2521 3.86423 14.2522 3.86423 14.2522C3.86423 14.2522 3.86423 14.2523 3.86423 14.2523C3.86423 14.2524 3.86423 14.2524 3.86423 14.2524C3.86423 14.2525 3.86423 14.2525 3.86423 14.2526C3.86423 14.2526 3.86423 14.2526 3.86423 14.2527C3.86423 14.2527 3.86423 14.2528 3.86423 14.2528C3.86423 14.2528 3.86423 14.2529 3.86423 14.2529C3.86423 14.253 3.86423 14.253 3.86423 14.253C3.86423 14.2531 3.86423 14.2531 3.86423 14.2532C3.86423 14.2532 3.86423 14.2532 3.86423 14.2533C3.86423 14.2533 3.86423 14.2534 3.86423 14.2534C3.86423 14.2534 3.86423 14.2535 3.86423 14.2535C3.86423 14.2536 3.86423 14.2536 3.86423 14.2537C3.86423 14.2537 3.86423 14.2537 3.86423 14.2538C3.86423 14.2538 3.86423 14.2539 3.86423 14.2539C3.86423 14.2539 3.86423 14.254 3.86423 14.254C3.86423 14.2541 3.86423 14.2541 3.86423 14.2542C3.86423 14.2542 3.86423 14.2542 3.86423 14.2543C3.86423 14.2543 3.86423 14.2544 3.86423 14.2544C3.86423 14.2545 3.86423 14.2545 3.86423 14.2545C3.86423 14.2546 3.86423 14.2546 3.86423 14.2547C3.86423 14.2547 3.86423 14.2548 3.86423 14.2548C3.86423 14.2548 3.86423 14.2549 3.86423 14.2549C3.86423 14.255 3.86423 14.255 3.86423 14.2551C3.86423 14.2551 3.86423 14.2552 3.86423 14.2552C3.86423 14.2552 3.86423 14.2553 3.86423 14.2553C3.86423 14.2554 3.86423 14.2554 3.86423 14.2555C3.86423 14.2555 3.86423 14.2556 3.86423 14.2556C3.86423 14.2556 3.86423 14.2557 3.86423 14.2557C3.86423 14.2558 3.86423 14.2558 3.86423 14.2559C3.86423 14.2559 3.86423 14.256 3.86423 14.256C3.86423 14.2561 3.86423 14.2561 3.86423 14.2562C3.86423 14.2562 3.86423 14.2562 3.86423 14.2563C3.86423 14.2563 3.86423 14.2564 3.86423 14.2564C3.86423 14.2565 3.86423 14.2565 3.86423 14.2566C3.86423 14.2566 3.86423 14.2567 3.86423 14.2567C3.86423 14.2568 3.86423 14.2568 3.86423 14.2569C3.86423 14.2569 3.86423 14.2569 3.86423 14.257C3.86423 14.257 3.86423 14.2571 3.86423 14.2571C3.86423 14.2572 3.86423 14.2572 3.86423 14.2573C3.86423 14.2573 3.86423 14.2574 3.86423 14.2574C3.86423 14.2575 3.86423 14.2575 3.86423 14.2576C3.86423 14.2576 3.86423 14.2577 3.86423 14.2577C3.86423 14.2578 3.86423 14.2578 3.86423 14.2579C3.86423 14.2579 3.86423 14.258 3.86423 14.258C3.86423 14.2581 3.86423 14.2581 3.86423 14.2582C3.86423 14.2582 3.86423 14.2583 3.86423 14.2583C3.86423 14.2584 3.86423 14.2584 3.86423 14.2585C3.86423 14.2585 3.86423 14.2586 3.86423 14.2586C3.86423 14.2587 3.86423 14.2587 3.86423 14.2588C3.86423 14.2588 3.86423 14.2589 3.86423 14.2589C3.86423 14.259 3.86423 14.259 3.86423 14.2591C3.86423 14.2591 3.86423 14.2592 3.86423 14.2592C3.86423 14.2593 3.86423 14.2593 3.86423 14.2594C3.86423 14.2594 3.86423 14.2595 3.86423 14.2595C3.86423 14.2596 3.86423 14.2596 3.86423 14.2597C3.86423 14.2597 3.86423 14.2598 3.86423 14.2598C3.86423 14.2599 3.86423 14.2599 3.86423 14.26C3.86423 14.2601 3.86423 14.2601 3.86423 14.2602C3.86423 14.2602 3.86423 14.2603 3.86423 14.2603C3.86423 14.2604 3.86423 14.2604 3.86423 14.2605C3.86423 14.2605 3.86423 14.2606 3.86423 14.2606C3.86423 14.2607 3.86423 14.2607 3.86423 14.2608C3.86423 14.2609 3.86423 14.2609 3.86423 14.261C3.86423 14.261 3.86423 14.2611 3.86423 14.2611C3.86423 14.2612 3.86423 14.2612 3.86423 14.2613C3.86423 14.2613 3.86423 14.2614 3.86423 14.2615C3.86423 14.2615 3.86423 14.2616 3.86423 14.2616C3.86423 14.2617 3.86423 14.2617 3.86423 14.2618C3.86423 14.2618 3.86423 14.2619 3.86423 14.262C3.86423 14.262 3.86423 14.2621 3.86423 14.2621C3.86423 14.2622 3.86423 14.2622 3.86423 14.2623C3.86423 14.2624 3.86423 14.2624 3.86423 14.2625C3.86423 14.2625 3.86423 14.2626 3.86423 14.2626C3.86423 14.2627 3.86423 14.2627 3.86423 14.2628C3.86423 14.2629 3.86423 14.2629 3.86423 14.263C3.86423 14.263 3.86423 14.2631 3.86423 14.2632C3.86423 14.2632 3.86423 14.2633 3.86423 14.2633C3.86423 14.2634 3.86423 14.2634 3.86423 14.2635C3.86423 14.2636 3.86423 14.2636 3.86423 14.2637C3.86423 14.2637 3.86423 14.2638 3.86423 14.2639C3.86423 14.2639 3.86423 14.264 3.86423 14.264C3.86423 14.2641 3.86423 14.2641 3.86423 14.2642C3.86423 14.2643 3.86423 14.2643 3.86423 14.2644C3.86423 14.2644 3.86423 14.2645 3.86423 14.2646C3.86423 14.2646 3.86423 14.2647 3.86423 14.2647C3.86423 14.2648 3.86423 14.2649 3.86423 14.2649C3.86423 14.265 3.86423 14.2651 3.86423 14.2651C3.86423 14.2652 3.86423 14.2652 3.86423 14.2653C3.86423 14.2654 3.86423 14.2654 3.86423 14.2655C3.86423 14.2655 3.86423 14.2656 3.86423 14.2657C3.86423 14.2657 3.86423 14.2658 3.86423 14.2659C3.86423 14.2659 3.86423 14.266 3.86423 14.266C3.86423 14.2661 3.86423 14.2662 3.86423 14.2662C3.86423 14.2663 3.86423 14.2663 3.86423 14.2664C3.86423 14.2665 3.86423 14.2665 3.86423 14.2666C3.86423 14.2667 3.86423 14.2667 3.86423 14.2668C3.86423 14.2669 3.86423 14.2669 3.86423 14.267C3.86423 14.267 3.86423 14.2671 3.86423 14.2672C3.86423 14.2672 3.86423 14.2673 3.86423 14.2674C3.86423 14.2674 3.86423 14.2675 3.86423 14.2676C3.86423 14.2676 3.86423 14.2677 3.86423 14.2678C3.86423 14.2678 3.86423 14.2679 3.86423 14.268C3.86423 14.268 3.86423 14.2681 3.86423 14.2681C3.86423 14.2682 3.86423 14.2683 3.86423 14.2683C3.86423 14.2684 3.86423 14.2685 3.86423 14.2685C3.86423 14.2686 3.86423 14.2687 3.86423 14.2687C3.86423 14.2688 3.86423 14.2689 3.86423 14.2689C3.86423 14.269 3.86423 14.2691 3.86423 14.2691C3.86423 14.2692 3.86423 14.2693 3.86423 14.2693C3.86423 14.2694 3.86423 14.2695 3.86423 14.2695C3.86423 14.2696 3.86423 14.2697 3.86423 14.2697C3.86423 14.2698 3.86423 14.2699 3.86423 14.27C3.86423 14.27 3.86423 14.2701 3.86423 14.2702C3.86423 14.2702 3.86423 14.2703 3.86423 14.2704C3.86423 14.2704 3.86423 14.2705 3.86423 14.2706C3.86423 14.2706 3.86423 14.2707 3.86423 14.2708C3.86423 14.2708 3.86423 14.2709 3.86423 14.271C3.86423 14.2711 3.86423 14.2711 3.86423 14.2712C3.86423 14.2713 3.86423 14.2713 3.86423 14.2714C3.86423 14.2715 3.86423 14.2715 3.86423 14.2716C3.86423 14.2717 3.86423 14.2718 3.86423 14.2718C3.86423 14.2719 3.86423 14.272 3.86423 14.272C3.86423 14.2721 3.86423 14.2722 3.86423 14.2723C3.86423 14.2723 3.86423 14.2724 3.86423 14.2725C3.86423 14.2725 3.86423 14.2726 3.86423 14.2727C3.86423 14.2728 3.86423 14.2728 3.86423 14.2729C3.86423 14.273 3.86423 14.273 3.86423 14.2731C3.86423 14.2732 3.86423 14.2733 3.86423 14.2733C3.86423 14.2734 3.86423 14.2735 3.86423 14.2736C3.86423 14.2736 3.86423 14.2737 3.86423 14.2738C3.86423 14.2739 3.86423 14.2739 3.86423 14.274C3.86423 14.2741 3.86423 14.2741 3.86423 14.2742C3.86423 14.2743 3.86423 14.2744 3.86423 14.2744C3.86423 14.2745 3.86423 14.2746 3.86423 14.2747C3.86423 14.2747 3.86423 14.2748 3.86423 14.2749C3.86423 14.275 3.86423 14.275 3.86423 14.2751C3.86423 14.2752 3.86423 14.2753 3.86423 14.2754C3.86423 14.2754 3.86423 14.2755 3.86423 14.2756C3.86423 14.2757 3.86423 14.2757 3.86423 14.2758C3.86423 14.2759 3.86423 14.276 3.86423 14.276C3.86423 14.2761 3.86423 14.2762 3.86423 14.2763C3.86423 14.2763 3.86423 14.2764 3.86423 14.2765C3.86423 14.2766 3.86423 14.2767 3.86423 14.2767C3.86423 14.2768 3.86423 14.2769 3.86423 14.277C3.86423 14.277 3.86423 14.2771 3.86423 14.2772C3.86423 14.2773 3.86423 14.2774 3.86423 14.2774C3.86423 14.2775 3.86423 14.2776 3.86423 14.2777C3.86423 14.2778 3.86423 14.2778 3.86423 14.2779C3.86423 14.278 3.86423 14.2781 3.86423 14.2781C3.86423 14.2782 3.86423 14.2783 3.86423 14.2784C3.86423 14.2785 3.86423 14.2786 3.86423 14.2786C3.86423 14.2787 3.86423 14.2788 3.86423 14.2789C3.86423 14.279 3.86423 14.279 3.86423 14.2791C3.86423 14.2792 3.86423 14.2793 3.86423 14.2794C3.86423 14.2794 3.86423 14.2795 3.86423 14.2796C3.86423 14.2797 3.86423 14.2798 3.86423 14.2798C3.86423 14.2799 3.86423 14.28 3.86423 14.2801C3.86423 14.2802 3.86423 14.2803 3.86423 14.2803C3.86423 14.2804 3.86423 14.2805 3.86423 14.2806C3.86423 14.2807 3.86423 14.2808 3.86423 14.2808C3.86423 14.2809 3.86423 14.281 3.86423 14.2811C3.86423 14.2812 3.86423 14.2813 3.86423 14.2813C3.86423 14.2814 3.86423 14.2815 3.86423 14.2816C3.86423 14.2817 3.86423 14.2818 3.86423 14.2818C3.86423 14.2819 3.86423 14.282 3.86423 14.2821C3.86423 14.2822 3.86423 14.2823 3.86423 14.2824C3.86423 14.2824 3.86423 14.2825 3.86423 14.2826C3.86423 14.2827 3.86423 14.2828 3.86423 14.2829H9.86423C9.86423 14.2828 9.86423 14.2827 9.86423 14.2826C9.86423 14.2825 9.86423 14.2824 9.86423 14.2824C9.86423 14.2823 9.86423 14.2822 9.86423 14.2821C9.86423 14.282 9.86423 14.2819 9.86423 14.2818C9.86423 14.2818 9.86423 14.2817 9.86423 14.2816C9.86423 14.2815 9.86423 14.2814 9.86423 14.2813C9.86423 14.2813 9.86423 14.2812 9.86423 14.2811C9.86423 14.281 9.86423 14.2809 9.86423 14.2808C9.86423 14.2808 9.86423 14.2807 9.86423 14.2806C9.86423 14.2805 9.86423 14.2804 9.86423 14.2803C9.86423 14.2803 9.86423 14.2802 9.86423 14.2801C9.86423 14.28 9.86423 14.2799 9.86423 14.2798C9.86423 14.2798 9.86423 14.2797 9.86423 14.2796C9.86423 14.2795 9.86423 14.2794 9.86423 14.2794C9.86423 14.2793 9.86423 14.2792 9.86423 14.2791C9.86423 14.279 9.86423 14.279 9.86423 14.2789C9.86423 14.2788 9.86423 14.2787 9.86423 14.2786C9.86423 14.2786 9.86423 14.2785 9.86423 14.2784C9.86423 14.2783 9.86423 14.2782 9.86423 14.2781C9.86423 14.2781 9.86423 14.278 9.86423 14.2779C9.86423 14.2778 9.86423 14.2778 9.86423 14.2777C9.86423 14.2776 9.86423 14.2775 9.86423 14.2774C9.86423 14.2774 9.86423 14.2773 9.86423 14.2772C9.86423 14.2771 9.86423 14.277 9.86423 14.277C9.86423 14.2769 9.86423 14.2768 9.86423 14.2767C9.86423 14.2767 9.86423 14.2766 9.86423 14.2765C9.86423 14.2764 9.86423 14.2763 9.86423 14.2763C9.86423 14.2762 9.86423 14.2761 9.86423 14.276C9.86423 14.276 9.86423 14.2759 9.86423 14.2758C9.86423 14.2757 9.86423 14.2757 9.86423 14.2756C9.86423 14.2755 9.86423 14.2754 9.86423 14.2754C9.86423 14.2753 9.86423 14.2752 9.86423 14.2751C9.86423 14.275 9.86423 14.275 9.86423 14.2749C9.86423 14.2748 9.86423 14.2747 9.86423 14.2747C9.86423 14.2746 9.86423 14.2745 9.86423 14.2744C9.86423 14.2744 9.86423 14.2743 9.86423 14.2742C9.86423 14.2741 9.86423 14.2741 9.86423 14.274C9.86423 14.2739 9.86423 14.2739 9.86423 14.2738C9.86423 14.2737 9.86423 14.2736 9.86423 14.2736C9.86423 14.2735 9.86423 14.2734 9.86423 14.2733C9.86423 14.2733 9.86423 14.2732 9.86423 14.2731C9.86423 14.273 9.86423 14.273 9.86423 14.2729C9.86423 14.2728 9.86423 14.2728 9.86423 14.2727C9.86423 14.2726 9.86423 14.2725 9.86423 14.2725C9.86423 14.2724 9.86423 14.2723 9.86423 14.2723C9.86423 14.2722 9.86423 14.2721 9.86423 14.272C9.86423 14.272 9.86423 14.2719 9.86423 14.2718C9.86423 14.2718 9.86423 14.2717 9.86423 14.2716C9.86423 14.2715 9.86423 14.2715 9.86423 14.2714C9.86423 14.2713 9.86423 14.2713 9.86423 14.2712C9.86423 14.2711 9.86423 14.2711 9.86423 14.271C9.86423 14.2709 9.86423 14.2708 9.86423 14.2708C9.86423 14.2707 9.86423 14.2706 9.86423 14.2706C9.86423 14.2705 9.86423 14.2704 9.86423 14.2704C9.86423 14.2703 9.86423 14.2702 9.86423 14.2702C9.86423 14.2701 9.86423 14.27 9.86423 14.27C9.86423 14.2699 9.86423 14.2698 9.86423 14.2697C9.86423 14.2697 9.86423 14.2696 9.86423 14.2695C9.86423 14.2695 9.86423 14.2694 9.86423 14.2693C9.86423 14.2693 9.86423 14.2692 9.86423 14.2691C9.86423 14.2691 9.86423 14.269 9.86423 14.2689C9.86423 14.2689 9.86423 14.2688 9.86423 14.2687C9.86423 14.2687 9.86423 14.2686 9.86423 14.2685C9.86423 14.2685 9.86423 14.2684 9.86423 14.2683C9.86423 14.2683 9.86423 14.2682 9.86423 14.2681C9.86423 14.2681 9.86423 14.268 9.86423 14.268C9.86423 14.2679 9.86423 14.2678 9.86423 14.2678C9.86423 14.2677 9.86423 14.2676 9.86423 14.2676C9.86423 14.2675 9.86423 14.2674 9.86423 14.2674C9.86423 14.2673 9.86423 14.2672 9.86423 14.2672C9.86423 14.2671 9.86423 14.267 9.86423 14.267C9.86423 14.2669 9.86423 14.2669 9.86423 14.2668C9.86423 14.2667 9.86423 14.2667 9.86423 14.2666C9.86423 14.2665 9.86423 14.2665 9.86423 14.2664C9.86423 14.2663 9.86423 14.2663 9.86423 14.2662C9.86423 14.2662 9.86423 14.2661 9.86423 14.266C9.86423 14.266 9.86423 14.2659 9.86423 14.2659C9.86423 14.2658 9.86423 14.2657 9.86423 14.2657C9.86423 14.2656 9.86423 14.2655 9.86423 14.2655C9.86423 14.2654 9.86423 14.2654 9.86423 14.2653C9.86423 14.2652 9.86423 14.2652 9.86423 14.2651C9.86423 14.2651 9.86423 14.265 9.86423 14.2649C9.86423 14.2649 9.86423 14.2648 9.86423 14.2647C9.86423 14.2647 9.86423 14.2646 9.86423 14.2646C9.86423 14.2645 9.86423 14.2644 9.86423 14.2644C9.86423 14.2643 9.86423 14.2643 9.86423 14.2642C9.86423 14.2641 9.86423 14.2641 9.86423 14.264C9.86423 14.264 9.86423 14.2639 9.86423 14.2639C9.86423 14.2638 9.86423 14.2637 9.86423 14.2637C9.86423 14.2636 9.86423 14.2636 9.86423 14.2635C9.86423 14.2634 9.86423 14.2634 9.86423 14.2633C9.86423 14.2633 9.86423 14.2632 9.86423 14.2632C9.86423 14.2631 9.86423 14.263 9.86423 14.263C9.86423 14.2629 9.86423 14.2629 9.86423 14.2628C9.86423 14.2627 9.86423 14.2627 9.86423 14.2626C9.86423 14.2626 9.86423 14.2625 9.86423 14.2625C9.86423 14.2624 9.86423 14.2624 9.86423 14.2623C9.86423 14.2622 9.86423 14.2622 9.86423 14.2621C9.86423 14.2621 9.86423 14.262 9.86423 14.262C9.86423 14.2619 9.86423 14.2618 9.86423 14.2618C9.86423 14.2617 9.86423 14.2617 9.86423 14.2616C9.86423 14.2616 9.86423 14.2615 9.86423 14.2615C9.86423 14.2614 9.86423 14.2613 9.86423 14.2613C9.86423 14.2612 9.86423 14.2612 9.86423 14.2611C9.86423 14.2611 9.86423 14.261 9.86423 14.261C9.86423 14.2609 9.86423 14.2609 9.86423 14.2608C9.86423 14.2607 9.86423 14.2607 9.86423 14.2606C9.86423 14.2606 9.86423 14.2605 9.86423 14.2605C9.86423 14.2604 9.86423 14.2604 9.86423 14.2603C9.86423 14.2603 9.86423 14.2602 9.86423 14.2602C9.86423 14.2601 9.86423 14.2601 9.86423 14.26C9.86423 14.2599 9.86423 14.2599 9.86423 14.2598C9.86423 14.2598 9.86423 14.2597 9.86423 14.2597C9.86423 14.2596 9.86423 14.2596 9.86423 14.2595C9.86423 14.2595 9.86423 14.2594 9.86423 14.2594C9.86423 14.2593 9.86423 14.2593 9.86423 14.2592C9.86423 14.2592 9.86423 14.2591 9.86423 14.2591C9.86423 14.259 9.86423 14.259 9.86423 14.2589C9.86423 14.2589 9.86423 14.2588 9.86423 14.2588C9.86423 14.2587 9.86423 14.2587 9.86423 14.2586C9.86423 14.2586 9.86423 14.2585 9.86423 14.2585C9.86423 14.2584 9.86423 14.2584 9.86423 14.2583C9.86423 14.2583 9.86423 14.2582 9.86423 14.2582C9.86423 14.2581 9.86423 14.2581 9.86423 14.258C9.86423 14.258 9.86423 14.2579 9.86423 14.2579C9.86423 14.2578 9.86423 14.2578 9.86423 14.2577C9.86423 14.2577 9.86423 14.2576 9.86423 14.2576C9.86423 14.2575 9.86423 14.2575 9.86423 14.2574C9.86423 14.2574 9.86423 14.2573 9.86423 14.2573C9.86423 14.2572 9.86423 14.2572 9.86423 14.2571C9.86423 14.2571 9.86423 14.257 9.86423 14.257C9.86423 14.2569 9.86423 14.2569 9.86423 14.2569C9.86423 14.2568 9.86423 14.2568 9.86423 14.2567C9.86423 14.2567 9.86423 14.2566 9.86423 14.2566C9.86423 14.2565 9.86423 14.2565 9.86423 14.2564C9.86423 14.2564 9.86423 14.2563 9.86423 14.2563C9.86423 14.2562 9.86423 14.2562 9.86423 14.2562C9.86423 14.2561 9.86423 14.2561 9.86423 14.256C9.86423 14.256 9.86423 14.2559 9.86423 14.2559C9.86423 14.2558 9.86423 14.2558 9.86423 14.2557C9.86423 14.2557 9.86423 14.2556 9.86423 14.2556C9.86423 14.2556 9.86423 14.2555 9.86423 14.2555C9.86423 14.2554 9.86423 14.2554 9.86423 14.2553C9.86423 14.2553 9.86423 14.2552 9.86423 14.2552C9.86423 14.2552 9.86423 14.2551 9.86423 14.2551C9.86423 14.255 9.86423 14.255 9.86423 14.2549C9.86423 14.2549 9.86423 14.2548 9.86423 14.2548C9.86423 14.2548 9.86423 14.2547 9.86423 14.2547C9.86423 14.2546 9.86423 14.2546 9.86423 14.2545C9.86423 14.2545 9.86423 14.2545 9.86423 14.2544C9.86423 14.2544 9.86423 14.2543 9.86423 14.2543C9.86423 14.2542 9.86423 14.2542 9.86423 14.2542C9.86423 14.2541 9.86423 14.2541 9.86423 14.254C9.86423 14.254 9.86423 14.2539 9.86423 14.2539C9.86423 14.2539 9.86423 14.2538 9.86423 14.2538C9.86423 14.2537 9.86423 14.2537 9.86423 14.2537C9.86423 14.2536 9.86423 14.2536 9.86423 14.2535C9.86423 14.2535 9.86423 14.2534 9.86423 14.2534C9.86423 14.2534 9.86423 14.2533 9.86423 14.2533C9.86423 14.2532 9.86423 14.2532 9.86423 14.2532C9.86423 14.2531 9.86423 14.2531 9.86423 14.253C9.86423 14.253 9.86423 14.253 9.86423 14.2529C9.86423 14.2529 9.86423 14.2528 9.86423 14.2528C9.86423 14.2528 9.86423 14.2527 9.86423 14.2527C9.86423 14.2526 9.86423 14.2526 9.86423 14.2526C9.86423 14.2525 9.86423 14.2525 9.86423 14.2524C9.86423 14.2524 9.86423 14.2524 9.86423 14.2523C9.86423 14.2523 9.86423 14.2522 9.86423 14.2522C9.86423 14.2522 9.86423 14.2521 9.86423 14.2521C9.86423 14.2521 9.86423 14.252 9.86423 14.252C9.86423 14.2519 9.86423 14.2519 9.86423 14.2519C9.86423 14.2518 9.86423 14.2518 9.86423 14.2517C9.86423 14.2517 9.86423 14.2517 9.86423 14.2516C9.86423 14.2516 9.86423 14.2516 9.86423 14.2515C9.86423 14.2515 9.86423 14.2514 9.86423 14.2514C9.86423 14.2514 9.86423 14.2513 9.86423 14.2513C9.86423 14.2513 9.86423 14.2512 9.86423 14.2512C9.86423 14.2511 9.86423 14.2511 9.86423 14.2511C9.86423 14.251 9.86423 14.251 9.86423 14.251C9.86423 14.2509 9.86423 14.2509 9.86423 14.2509C9.86423 14.2508 9.86423 14.2508 9.86423 14.2507C9.86423 14.2507 9.86423 14.2507 9.86423 14.2506C9.86423 14.2506 9.86423 14.2506 9.86423 14.2505C9.86423 14.2505 9.86423 14.2505 9.86423 14.2504C9.86423 14.2504 9.86423 14.2504 9.86423 14.2503C9.86423 14.2503 9.86423 14.2503 9.86423 14.2502C9.86423 14.2502 9.86423 14.2501 9.86423 14.2501C9.86423 14.2501 9.86423 14.25 9.86423 14.25C9.86423 14.25 9.86423 14.2499 9.86423 14.2499C9.86423 14.2499 9.86423 14.2498 9.86423 14.2498C9.86423 14.2498 9.86423 14.2497 9.86423 14.2497C9.86423 14.2497 9.86423 14.2496 9.86423 14.2496C9.86423 14.2496 9.86423 14.2495 9.86423 14.2495C9.86423 14.2495 9.86423 14.2494 9.86423 14.2494C9.86423 14.2494 9.86423 14.2493 9.86423 14.2493C9.86423 14.2493 9.86423 14.2492 9.86423 14.2492C9.86423 14.2492 9.86423 14.2491 9.86423 14.2491C9.86423 14.2491 9.86423 14.249 9.86423 14.249C9.86423 14.249 9.86423 14.2489 9.86423 14.2489C9.86423 14.2489 9.86423 14.2488 9.86423 14.2488C9.86423 14.2488 9.86423 14.2488 9.86423 14.2487C9.86423 14.2487 9.86423 14.2487 9.86423 14.2486C9.86423 14.2486 9.86423 14.2486 9.86423 14.2485C9.86423 14.2485 9.86423 14.2485 9.86423 14.2484C9.86423 14.2484 9.86423 14.2484 9.86423 14.2483C9.86423 14.2483 9.86423 14.2483 9.86423 14.2483C9.86423 14.2482 9.86423 14.2482 9.86423 14.2482C9.86423 14.2481 9.86423 14.2481 9.86423 14.2481C9.86423 14.248 9.86423 14.248 9.86423 14.248C9.86423 14.248 9.86423 14.2479 9.86423 14.2479C9.86423 14.2479 9.86423 14.2478 9.86423 14.2478C9.86423 14.2478 9.86423 14.2477 9.86423 14.2477C9.86423 14.2477 9.86423 14.2477 9.86423 14.2476C9.86423 14.2476 9.86423 14.2476 9.86423 14.2475C9.86423 14.2475 9.86423 14.2475 9.86423 14.2474C9.86423 14.2474 9.86423 14.2474 9.86423 14.2474C9.86423 14.2473 9.86423 14.2473 9.86423 14.2473C9.86423 14.2472 9.86423 14.2472 9.86423 14.2472C9.86423 14.2472 9.86423 14.2471 9.86423 14.2471C9.86423 14.2471 9.86423 14.2471 9.86423 14.247C9.86423 14.247 9.86423 14.247 9.86423 14.2469C9.86423 14.2469 9.86423 14.2469 9.86423 14.2469C9.86423 14.2468 9.86423 14.2468 9.86423 14.2468C9.86423 14.2467 9.86423 14.2467 9.86423 14.2467C9.86423 14.2467 9.86423 14.2466 9.86423 14.2466C9.86423 14.2466 9.86423 14.2466 9.86423 14.2465C9.86423 14.2465 9.86423 14.2465 9.86423 14.2464C9.86423 14.2464 9.86423 14.2464 9.86423 14.2464C9.86423 14.2463 9.86423 14.2463 9.86423 14.2463C9.86423 14.2463 9.86423 14.2462 9.86423 14.2462C9.86423 14.2462 9.86423 14.2462 9.86423 14.2461C9.86423 14.2461 9.86423 14.2461 9.86423 14.2461C9.86423 14.246 9.86423 14.246 9.86423 14.246C9.86423 14.246 9.86423 14.2459 9.86423 14.2459C9.86423 14.2459 9.86423 14.2459 9.86423 14.2458C9.86423 14.2458 9.86423 14.2458 9.86423 14.2458C9.86423 14.2457 9.86423 14.2457 9.86423 14.2457C9.86423 14.2457 9.86423 14.2456 9.86423 14.2456C9.86423 14.2456 9.86423 14.2456 9.86423 14.2455C9.86423 14.2455 9.86423 14.2455 9.86423 14.2455C9.86423 14.2454 9.86423 14.2454 9.86423 14.2454C9.86423 14.2454 9.86423 14.2453 9.86423 14.2453C9.86423 14.2453 9.86423 14.2453 9.86423 14.2452C9.86423 14.2452 9.86423 14.2452 9.86423 14.2452C9.86423 14.2451 9.86423 14.2451 9.86423 14.2451C9.86423 14.2451 9.86423 14.2451 9.86423 14.245C9.86423 14.245 9.86423 14.245 9.86423 14.245C9.86423 14.2449 9.86423 14.2449 9.86423 14.2449C9.86423 14.2449 9.86423 14.2448 9.86423 14.2448C9.86423 14.2448 9.86423 14.2448 9.86423 14.2448C9.86423 14.2447 9.86423 14.2447 9.86423 14.2447C9.86423 14.2447 9.86423 14.2446 9.86423 14.2446C9.86423 14.2446 9.86423 14.2446 9.86423 14.2446C9.86423 14.2445 9.86423 14.2445 9.86423 14.2445C9.86423 14.2445 9.86423 14.2444 9.86423 14.2444C9.86423 14.2444 9.86423 14.2444 9.86423 14.2444C9.86423 14.2443 9.86423 14.2443 9.86423 14.2443C9.86423 14.2443 9.86423 14.2443 9.86423 14.2442C9.86423 14.2442 9.86423 14.2442 9.86423 14.2442C9.86423 14.2441 9.86423 14.2441 9.86423 14.2441C9.86423 14.2441 9.86423 14.2441 9.86423 14.244C9.86423 14.244 9.86423 14.244 9.86423 14.244C9.86423 14.244 9.86423 14.2439 9.86423 14.2439C9.86423 14.2439 9.86423 14.2439 9.86423 14.2439C9.86423 14.2438 9.86423 14.2438 9.86423 14.2438C9.86423 14.2438 9.86423 14.2438 9.86423 14.2437C9.86423 14.2437 9.86423 14.2437 9.86423 14.2437C9.86423 14.2437 9.86423 14.2436 9.86423 14.2436C9.86423 14.2436 9.86423 14.2436 9.86423 14.2436C9.86423 14.2435 9.86423 14.2435 9.86423 14.2435C9.86423 14.2435 9.86423 14.2435 9.86423 14.2434C9.86423 14.2434 9.86423 14.2434 9.86423 14.2434C9.86423 14.2434 9.86423 14.2434 9.86423 14.2433C9.86423 14.2433 9.86423 14.2433 9.86423 14.2433C9.86423 14.2433 9.86423 14.2432 9.86423 14.2432C9.86423 14.2432 9.86423 14.2432 9.86423 14.2432C9.86423 14.2432 9.86423 14.2431 9.86423 14.2431C9.86423 14.2431 9.86423 14.2431 9.86423 14.2431C9.86423 14.243 9.86423 14.243 9.86423 14.243C9.86423 14.243 9.86423 14.243 9.86423 14.243C9.86423 14.2429 9.86423 14.2429 9.86423 14.2429C9.86423 14.2429 9.86423 14.2429 9.86423 14.2428C9.86423 14.2428 9.86423 14.2428 9.86423 14.2428C9.86423 14.2428 9.86423 14.2428 9.86423 14.2427C9.86423 14.2427 9.86423 14.2427 9.86423 14.2427C9.86423 14.2427 9.86423 14.2427 9.86423 14.2426C9.86423 14.2426 9.86423 14.2426 9.86423 14.2426C9.86423 14.2426 9.86423 14.2426 9.86423 14.2425C9.86423 14.2425 9.86423 14.2425 9.86423 14.2425C9.86423 14.2425 9.86423 14.2425 9.86423 14.2424C9.86423 14.2424 9.86423 14.2424 9.86423 14.2424C9.86423 14.2424 9.86423 14.2424 9.86423 14.2423C9.86423 14.2423 9.86423 14.2423 9.86423 14.2423C9.86423 14.2423 9.86423 14.2423 9.86423 14.2423C9.86423 14.2422 9.86423 14.2422 9.86423 14.2422C9.86423 14.2422 9.86423 14.2422 9.86423 14.2422C9.86423 14.2421 9.86423 14.2421 9.86423 14.2421C9.86423 14.2421 9.86423 14.2421 9.86423 14.2421C9.86423 14.2421 9.86423 14.242 9.86423 14.242C9.86423 14.242 9.86423 14.242 9.86423 14.242C9.86423 14.242 9.86423 14.242 9.86423 14.2419C9.86423 14.2419 9.86423 14.2419 9.86423 14.2419C9.86423 14.2419 9.86423 14.2419 9.86423 14.2419C9.86423 14.2418 9.86423 14.2418 9.86423 14.2418C9.86423 14.2418 9.86423 14.2418 9.86423 14.2418C9.86423 14.2418 9.86423 14.2417 9.86423 14.2417C9.86423 14.2417 9.86423 14.2417 9.86423 14.2417C9.86423 14.2417 9.86423 14.2417 9.86423 14.2416C9.86423 14.2416 9.86423 14.2416 9.86423 14.2416C9.86423 14.2416 9.86423 14.2416 9.86423 14.2416C9.86423 14.2415 9.86423 14.2415 9.86423 14.2415C9.86423 14.2415 9.86423 14.2415 9.86423 14.2415C9.86423 14.2415 9.86423 14.2415 9.86423 14.2414C9.86423 14.2414 9.86423 14.2414 9.86423 14.2414C9.86423 14.2414 9.86423 14.2414 9.86423 14.2414C9.86423 14.2414 9.86423 14.2413 9.86423 14.2413C9.86423 14.2413 9.86423 14.2413 9.86423 14.2413C9.86423 14.2413 9.86423 14.2413 9.86423 14.2413C9.86423 14.2412 9.86423 14.2412 9.86423 14.2412C9.86423 14.2412 9.86423 14.2412 9.86423 14.2412C9.86423 14.2412 9.86423 14.2412 9.86423 14.2411C9.86423 14.2411 9.86423 14.2411 9.86423 14.2411C9.86423 14.2411 9.86423 14.2411 9.86423 14.2411C9.86423 14.2411 9.86423 14.241 9.86423 14.241C9.86423 14.241 9.86423 14.241 9.86423 14.241C9.86423 14.241 9.86423 14.241 9.86423 14.241C9.86423 14.241 9.86423 14.2409 9.86423 14.2409C9.86423 14.2409 9.86423 14.2409 9.86423 14.2409C9.86423 14.2409 9.86423 14.2409 9.86423 14.2409C9.86423 14.2409 9.86423 14.2408 9.86423 14.2408C9.86423 14.2408 9.86423 14.2408 9.86423 14.2408C9.86423 14.2408 9.86423 14.2408 9.86423 14.2408C9.86423 14.2408 9.86423 14.2407 9.86423 14.2407C9.86423 14.2407 9.86423 14.2407 9.86423 14.2407C9.86423 14.2407 9.86423 14.2407 9.86423 14.2407C9.86423 14.2407 9.86423 14.2407 9.86423 14.2406C9.86423 14.2406 9.86423 14.2406 9.86423 14.2406C9.86423 14.2406 9.86423 14.2406 9.86423 14.2406C9.86423 14.2406 9.86423 14.2406 9.86423 14.2406C9.86423 14.2405 9.86423 14.2405 9.86423 14.2405C9.86423 14.2405 9.86423 14.2405 9.86423 14.2405C9.86423 14.2405 9.86423 14.2405 9.86423 14.2405C9.86423 14.2405 9.86423 14.2405 9.86423 14.2404C9.86423 14.2404 9.86423 14.2404 9.86423 14.2404C9.86423 14.2404 9.86423 14.2404 9.86423 14.2404C9.86423 14.2404 9.86423 14.2404 9.86423 14.2404C9.86423 14.2403 9.86423 14.2403 9.86423 14.2403C9.86423 14.2403 9.86423 14.2403 9.86423 14.2403C9.86423 14.2403 9.86423 14.2403 9.86423 14.2403C9.86423 14.2403 9.86423 14.2403 9.86423 14.2403C9.86423 14.2402 9.86423 14.2402 9.86423 14.2402C9.86423 14.2402 9.86423 14.2402 9.86423 14.2402C9.86423 14.2402 9.86423 14.2402 9.86423 14.2402C9.86423 14.2402 9.86423 14.2402 9.86423 14.2402C9.86423 14.2401 9.86423 14.2401 9.86423 14.2401C9.86423 14.2401 9.86423 14.2401 9.86423 14.2401C9.86423 14.2401 9.86423 14.2401 9.86423 14.2401C9.86423 14.2401 9.86423 14.2401 9.86423 14.2401C9.86423 14.24 9.86423 14.24 9.86423 14.24C9.86423 14.24 9.86423 14.24 9.86423 14.24C9.86423 14.24 9.86423 14.24 9.86423 14.24C9.86423 14.24 9.86423 14.24 9.86423 14.24C9.86423 14.24 9.86423 14.24 9.86423 14.2399C9.86423 14.2399 9.86423 14.2399 9.86423 14.2399C9.86423 14.2399 9.86423 14.2399 9.86423 14.2399C9.86423 14.2399 9.86423 14.2399 9.86423 14.2399C9.86423 14.2399 9.86423 14.2399 9.86423 14.2399C9.86423 14.2399 9.86423 14.2398 9.86423 14.2398C9.86423 14.2398 9.86423 14.2398 9.86423 14.2398C9.86423 14.2398 9.86423 14.2398 9.86423 14.2398C9.86423 14.2398 9.86423 14.2398 9.86423 14.2398C9.86423 14.2398 9.86423 14.2398 9.86423 14.2398C9.86423 14.2398 9.86423 14.2397 9.86423 14.2397C9.86423 14.2397 9.86423 14.2397 9.86423 14.2397C9.86423 14.2397 9.86423 14.2397 9.86423 14.2397C9.86423 14.2397 9.86423 14.2397 9.86423 14.2397C9.86423 14.2397 9.86423 14.2397 9.86423 14.2397C9.86423 14.2397 9.86423 14.2397 9.86423 14.2396C9.86423 14.2396 9.86423 14.2396 9.86423 14.2396C9.86423 14.2396 9.86423 14.2396 9.86423 14.2396C9.86423 14.2396 9.86423 14.2396 9.86423 14.2396C9.86423 14.2396 9.86423 14.2396 9.86423 14.2396C9.86423 14.2396 9.86423 14.2396 9.86423 14.2396C9.86423 14.2396 9.86423 14.2396 9.86423 14.2395C9.86423 14.2395 9.86423 14.2395 9.86423 14.2395C9.86423 14.2395 9.86423 14.2395 9.86423 14.2395C9.86423 14.2395 9.86423 14.2395 9.86423 14.2395C9.86423 14.2395 9.86423 14.2395 9.86423 14.2395C9.86423 14.2395 9.86423 14.2395 9.86423 14.2395C9.86423 14.2395 9.86423 14.2395 9.86423 14.2395C9.86423 14.2394 9.86423 14.2394 9.86423 14.2394C9.86423 14.2394 9.86423 14.2394 9.86423 14.2394C9.86423 14.2394 9.86423 14.2394 9.86423 14.2394C9.86423 14.2394 9.86423 14.2394 9.86423 14.2394C9.86423 14.2394 9.86423 14.2394 9.86423 14.2394C9.86423 14.2394 9.86423 14.2394 9.86423 14.2394C9.86423 14.2394 9.86423 14.2394 9.86423 14.2394C9.86423 14.2394 9.86423 14.2393 9.86423 14.2393C9.86423 14.2393 9.86423 14.2393 9.86423 14.2393C9.86423 14.2393 9.86423 14.2393 9.86423 14.2393C9.86423 14.2393 9.86423 14.2393 9.86423 14.2393C9.86423 14.2393 9.86423 14.2393 9.86423 14.2393C9.86423 14.2393 9.86423 14.2393 9.86423 14.2393C9.86423 14.2393 9.86423 14.2393 9.86423 14.2393C9.86423 14.2393 9.86423 14.2393 9.86423 14.2393C9.86423 14.2393 9.86423 14.2393 9.86423 14.2392C9.86423 14.2392 9.86423 14.2392 9.86423 14.2392C9.86423 14.2392 9.86423 14.2392 9.86423 14.2392C9.86423 14.2392 9.86423 14.2392 9.86423 14.2392C9.86423 14.2392 9.86423 14.2392 9.86423 14.2392C9.86423 14.2392 9.86423 14.2392 9.86423 14.2392C9.86423 14.2392 9.86423 14.2392 9.86423 14.2392C9.86423 14.2392 9.86423 14.2392 9.86423 14.2392C9.86423 14.2392 9.86423 14.2392 9.86423 14.2392C9.86423 14.2392 9.86423 14.2392 9.86423 14.2392C9.86423 14.2392 9.86423 14.2392 9.86423 14.2391C9.86423 14.2391 9.86423 14.2391 9.86423 14.2391C9.86423 14.2391 9.86423 14.2391 9.86423 14.2391C9.86423 14.2391 9.86423 14.2391 9.86423 14.2391C9.86423 14.2391 9.86423 14.2391 9.86423 14.2391C9.86423 14.2391 9.86423 14.2391 9.86423 14.2391C9.86423 14.2391 9.86423 14.2391 9.86423 14.2391C9.86423 14.2391 9.86423 14.2391 9.86423 14.2391C9.86423 14.2391 9.86423 14.2391 9.86423 14.2391C9.86423 14.2391 9.86423 14.2391 9.86423 14.2391C9.86423 14.2391 9.86423 14.2391 9.86423 14.2391C9.86423 14.2391 9.86423 14.2391 9.86423 14.2391C9.86423 14.2391 9.86423 14.2391 9.86423 14.2391C9.86423 14.2391 9.86423 14.239 9.86423 14.239C9.86423 14.239 9.86423 14.239 9.86423 14.239C9.86423 14.239 9.86423 14.239 9.86423 14.239C9.86423 14.239 9.86423 14.239 9.86423 14.239C9.86423 14.239 9.86423 14.239 9.86423 14.239C9.86423 14.239 9.86423 14.239 9.86423 14.239C9.86423 14.239 9.86423 14.239 9.86423 14.239C9.86423 14.239 9.86423 14.239 9.86423 14.239C9.86423 14.239 9.86423 14.239 9.86423 14.239C9.86423 14.239 9.86423 14.239 9.86423 14.239C9.86423 14.239 9.86423 14.239 9.86423 14.239C9.86423 14.239 9.86423 14.239 9.86423 14.239C9.86423 14.239 9.86423 14.239 9.86423 14.239C9.86423 14.239 9.86423 14.239 9.86423 14.239C9.86423 14.239 9.86423 14.239 9.86423 14.239C9.86423 14.239 9.86423 14.239 9.86423 14.239C9.86423 14.239 9.86423 14.239 9.86423 14.239C9.86423 14.239 9.86423 14.239 9.86423 14.239C9.86423 14.239 9.86423 14.2389 9.86423 14.2389C9.86423 14.2389 9.86423 14.2389 9.86423 14.2389C9.86423 14.2389 9.86423 14.2389 9.86423 14.2389C9.86423 14.2389 9.86423 14.2389 9.86423 14.2389C9.86423 14.2389 9.86423 14.2389 9.86423 14.2389C9.86423 14.2389 9.86423 14.2389 9.86423 14.2389C9.86423 14.2389 9.86423 14.2389 9.86423 14.2389C9.86423 14.2389 9.86423 14.2389 9.86423 14.2389C9.86423 14.2389 9.86423 14.2389 9.86423 14.2389C9.86423 14.2389 9.86423 14.2389 9.86423 14.2389C9.86423 14.2389 9.86423 14.2389 9.86423 14.2389C9.86423 14.2389 9.86423 14.2389 9.86423 14.2389C9.86423 14.2389 9.86423 14.2389 9.86423 14.2389C9.86423 14.2389 9.86423 14.2389 9.86423 14.2389C9.86423 14.2389 9.86423 14.2389 9.86423 14.2389C9.86423 14.2389 9.86423 14.2389 9.86423 14.2389C9.86423 14.2389 9.86423 14.2389 9.86423 14.2389C9.86423 14.2389 9.86423 14.2389 9.86423 14.2389C9.86423 14.2389 9.86423 14.2389 9.86423 14.2389C9.86423 14.2389 9.86423 14.2389 9.86423 14.2389C9.86423 14.2389 9.86423 14.2389 9.86423 14.2389C9.86423 14.2389 9.86423 14.2389 9.86423 14.2389C9.86423 14.2389 9.86423 14.2389 9.86423 14.2389C9.86423 14.2389 9.86423 14.2389 9.86423 14.2389C9.86423 14.2389 9.86423 14.2389 9.86423 14.2389C9.86423 14.2389 9.86423 14.2389 9.86423 14.2389V14.2389C9.86423 14.2389 9.86423 14.2389 9.86423 14.2389V14.2389C9.86423 14.2389 9.86423 14.2389 9.86423 14.2389V14.2389V14.2389C9.86423 14.2389 9.86423 14.2389 9.86423 14.2389C9.86423 14.2389 9.86423 14.2389 9.86423 14.2389C9.86423 14.2389 9.86423 14.2389 9.86423 14.2389C9.86423 14.2389 9.86423 14.2389 9.86423 14.2389C9.86423 14.2389 9.86423 14.2389 9.86423 14.2389C9.86423 14.2389 9.86423 14.2389 9.86423 14.2389V14.2389C9.86423 14.2389 9.86423 14.2389 9.86423 14.2389C9.86423 14.2389 9.86423 14.2389 9.86423 14.2389C9.86423 14.2389 9.86423 14.2389 9.86423 14.2389C9.86423 14.2389 9.86423 14.2389 9.86423 14.2389V14.2389C9.86423 14.2389 9.86423 14.2389 9.86423 14.2389V14.2389C6.86423 14.2389 3.86423 14.2389 6.86423 14.2389ZM3.86423 14.2829V20.4152H9.86423V14.2829H3.86423ZM3.86423 20.4152C3.86423 22.1941 4.67477 23.7447 5.64269 24.9335C6.63024 26.1464 7.95514 27.206 9.43732 28.0748C12.4026 29.8131 16.3578 31 20.5916 31V25C17.4295 25 14.521 24.1 12.4716 22.8986C11.4464 22.2977 10.7262 21.6742 10.2955 21.1452C9.84514 20.5921 9.86423 20.3419 9.86423 20.4152H3.86423ZM20.5916 31C24.8255 31 28.7807 29.8131 31.746 28.0748C33.2282 27.206 34.5531 26.1464 35.5406 24.9335C36.5085 23.7447 37.3191 22.1941 37.3191 20.4152H31.3191C31.3191 20.3419 31.3382 20.5921 30.8878 21.1452C30.4571 21.6742 29.7369 22.2977 28.7117 22.8986C26.6622 24.1 23.7537 25 20.5916 25V31ZM37.3191 20.4152V14.2865H31.3191V20.4152H37.3191ZM34.3191 14.2865C31.3191 14.2865 34.3191 14.2865 37.3191 14.2865C37.3191 14.2865 37.3191 14.2865 37.3191 14.2865C37.3191 14.2865 37.3191 14.2865 37.3191 14.2865C37.3191 14.2865 37.3191 14.2865 37.3191 14.2865C37.3191 14.2865 37.3191 14.2865 37.3191 14.2865C37.3191 14.2865 37.3191 14.2865 37.3191 14.2865V14.2865C37.3191 14.2865 37.3191 14.2865 37.3191 14.2865C37.3191 14.2865 37.3191 14.2865 37.3191 14.2865V14.2865V14.2865V14.2865V14.2865C37.3191 14.2865 37.3191 14.2865 37.3191 14.2865C37.3191 14.2865 37.3191 14.2865 37.3191 14.2865C37.3191 14.2865 37.3191 14.2865 37.3191 14.2865V14.2865C37.3191 14.2865 37.3191 14.2865 37.3191 14.2865V14.2865C37.3191 14.2865 37.3191 14.2865 37.3191 14.2865V14.2865C37.3191 14.2865 37.3191 14.2865 37.3191 14.2865C37.3191 14.2865 37.3191 14.2865 37.3191 14.2865C37.3191 14.2865 37.3191 14.2865 37.3191 14.2865C37.3191 14.2865 37.3191 14.2865 37.3191 14.2865C37.3191 14.2865 37.3191 14.2865 37.3191 14.2865C37.3191 14.2865 37.3191 14.2865 37.3191 14.2865C37.3191 14.2865 37.3191 14.2865 37.3191 14.2865C37.3191 14.2865 37.3191 14.2865 37.3191 14.2865C37.3191 14.2865 37.3191 14.2865 37.3191 14.2865C37.3191 14.2865 37.3191 14.2865 37.3191 14.2865C37.3191 14.2865 37.3191 14.2865 37.3191 14.2865C37.3191 14.2865 37.3191 14.2865 37.3191 14.2865C37.3191 14.2865 37.3191 14.2865 37.3191 14.2865C37.3191 14.2865 37.3191 14.2865 37.3191 14.2865C37.3191 14.2865 37.3191 14.2865 37.3191 14.2865C37.3191 14.2865 37.3191 14.2865 37.3191 14.2865C37.3191 14.2865 37.3191 14.2865 37.3191 14.2865C37.3191 14.2865 37.3191 14.2865 37.3191 14.2865C37.3191 14.2865 37.3191 14.2865 37.3191 14.2865C37.3191 14.2865 37.3191 14.2865 37.3191 14.2865C37.3191 14.2865 37.3191 14.2865 37.3191 14.2865C37.3191 14.2865 37.3191 14.2865 37.3191 14.2865C37.3191 14.2865 37.3191 14.2865 37.3191 14.2865C37.3191 14.2865 37.3191 14.2864 37.3191 14.2864C37.3191 14.2864 37.3191 14.2864 37.3191 14.2864C37.3191 14.2864 37.3191 14.2864 37.3191 14.2864C37.3191 14.2864 37.3191 14.2864 37.3191 14.2864C37.3191 14.2864 37.3191 14.2864 37.3191 14.2864C37.3191 14.2864 37.3191 14.2864 37.3191 14.2864C37.3191 14.2864 37.3191 14.2864 37.3191 14.2864C37.3191 14.2864 37.3191 14.2864 37.3191 14.2864C37.3191 14.2864 37.3191 14.2864 37.3191 14.2864C37.3191 14.2864 37.3191 14.2864 37.3191 14.2864C37.3191 14.2864 37.3191 14.2864 37.3191 14.2864C37.3191 14.2864 37.3191 14.2864 37.3191 14.2864C37.3191 14.2864 37.3191 14.2864 37.3191 14.2864C37.3191 14.2864 37.3191 14.2864 37.3191 14.2864C37.3191 14.2864 37.3191 14.2864 37.3191 14.2864C37.3191 14.2864 37.3191 14.2864 37.3191 14.2864C37.3191 14.2864 37.3191 14.2864 37.3191 14.2864C37.3191 14.2864 37.3191 14.2864 37.3191 14.2864C37.3191 14.2864 37.3191 14.2864 37.3191 14.2864C37.3191 14.2863 37.3191 14.2863 37.3191 14.2863C37.3191 14.2863 37.3191 14.2863 37.3191 14.2863C37.3191 14.2863 37.3191 14.2863 37.3191 14.2863C37.3191 14.2863 37.3191 14.2863 37.3191 14.2863C37.3191 14.2863 37.3191 14.2863 37.3191 14.2863C37.3191 14.2863 37.3191 14.2863 37.3191 14.2863C37.3191 14.2863 37.3191 14.2863 37.3191 14.2863C37.3191 14.2863 37.3191 14.2863 37.3191 14.2863C37.3191 14.2863 37.3191 14.2863 37.3191 14.2863C37.3191 14.2863 37.3191 14.2863 37.3191 14.2863C37.3191 14.2863 37.3191 14.2863 37.3191 14.2863C37.3191 14.2863 37.3191 14.2863 37.3191 14.2863C37.3191 14.2863 37.3191 14.2863 37.3191 14.2862C37.3191 14.2862 37.3191 14.2862 37.3191 14.2862C37.3191 14.2862 37.3191 14.2862 37.3191 14.2862C37.3191 14.2862 37.3191 14.2862 37.3191 14.2862C37.3191 14.2862 37.3191 14.2862 37.3191 14.2862C37.3191 14.2862 37.3191 14.2862 37.3191 14.2862C37.3191 14.2862 37.3191 14.2862 37.3191 14.2862C37.3191 14.2862 37.3191 14.2862 37.3191 14.2862C37.3191 14.2862 37.3191 14.2862 37.3191 14.2862C37.3191 14.2862 37.3191 14.2862 37.3191 14.2862C37.3191 14.2862 37.3191 14.2862 37.3191 14.2861C37.3191 14.2861 37.3191 14.2861 37.3191 14.2861C37.3191 14.2861 37.3191 14.2861 37.3191 14.2861C37.3191 14.2861 37.3191 14.2861 37.3191 14.2861C37.3191 14.2861 37.3191 14.2861 37.3191 14.2861C37.3191 14.2861 37.3191 14.2861 37.3191 14.2861C37.3191 14.2861 37.3191 14.2861 37.3191 14.2861C37.3191 14.2861 37.3191 14.2861 37.3191 14.2861C37.3191 14.2861 37.3191 14.2861 37.3191 14.2861C37.3191 14.286 37.3191 14.286 37.3191 14.286C37.3191 14.286 37.3191 14.286 37.3191 14.286C37.3191 14.286 37.3191 14.286 37.3191 14.286C37.3191 14.286 37.3191 14.286 37.3191 14.286C37.3191 14.286 37.3191 14.286 37.3191 14.286C37.3191 14.286 37.3191 14.286 37.3191 14.286C37.3191 14.286 37.3191 14.286 37.3191 14.286C37.3191 14.286 37.3191 14.2859 37.3191 14.2859C37.3191 14.2859 37.3191 14.2859 37.3191 14.2859C37.3191 14.2859 37.3191 14.2859 37.3191 14.2859C37.3191 14.2859 37.3191 14.2859 37.3191 14.2859C37.3191 14.2859 37.3191 14.2859 37.3191 14.2859C37.3191 14.2859 37.3191 14.2859 37.3191 14.2859C37.3191 14.2859 37.3191 14.2859 37.3191 14.2858C37.3191 14.2858 37.3191 14.2858 37.3191 14.2858C37.3191 14.2858 37.3191 14.2858 37.3191 14.2858C37.3191 14.2858 37.3191 14.2858 37.3191 14.2858C37.3191 14.2858 37.3191 14.2858 37.3191 14.2858C37.3191 14.2858 37.3191 14.2858 37.3191 14.2858C37.3191 14.2858 37.3191 14.2858 37.3191 14.2857C37.3191 14.2857 37.3191 14.2857 37.3191 14.2857C37.3191 14.2857 37.3191 14.2857 37.3191 14.2857C37.3191 14.2857 37.3191 14.2857 37.3191 14.2857C37.3191 14.2857 37.3191 14.2857 37.3191 14.2857C37.3191 14.2857 37.3191 14.2857 37.3191 14.2857C37.3191 14.2857 37.3191 14.2856 37.3191 14.2856C37.3191 14.2856 37.3191 14.2856 37.3191 14.2856C37.3191 14.2856 37.3191 14.2856 37.3191 14.2856C37.3191 14.2856 37.3191 14.2856 37.3191 14.2856C37.3191 14.2856 37.3191 14.2856 37.3191 14.2856C37.3191 14.2856 37.3191 14.2855 37.3191 14.2855C37.3191 14.2855 37.3191 14.2855 37.3191 14.2855C37.3191 14.2855 37.3191 14.2855 37.3191 14.2855C37.3191 14.2855 37.3191 14.2855 37.3191 14.2855C37.3191 14.2855 37.3191 14.2855 37.3191 14.2855C37.3191 14.2854 37.3191 14.2854 37.3191 14.2854C37.3191 14.2854 37.3191 14.2854 37.3191 14.2854C37.3191 14.2854 37.3191 14.2854 37.3191 14.2854C37.3191 14.2854 37.3191 14.2854 37.3191 14.2854C37.3191 14.2854 37.3191 14.2853 37.3191 14.2853C37.3191 14.2853 37.3191 14.2853 37.3191 14.2853C37.3191 14.2853 37.3191 14.2853 37.3191 14.2853C37.3191 14.2853 37.3191 14.2853 37.3191 14.2853C37.3191 14.2853 37.3191 14.2853 37.3191 14.2852C37.3191 14.2852 37.3191 14.2852 37.3191 14.2852C37.3191 14.2852 37.3191 14.2852 37.3191 14.2852C37.3191 14.2852 37.3191 14.2852 37.3191 14.2852C37.3191 14.2852 37.3191 14.2852 37.3191 14.2851C37.3191 14.2851 37.3191 14.2851 37.3191 14.2851C37.3191 14.2851 37.3191 14.2851 37.3191 14.2851C37.3191 14.2851 37.3191 14.2851 37.3191 14.2851C37.3191 14.2851 37.3191 14.285 37.3191 14.285C37.3191 14.285 37.3191 14.285 37.3191 14.285C37.3191 14.285 37.3191 14.285 37.3191 14.285C37.3191 14.285 37.3191 14.285 37.3191 14.285C37.3191 14.2849 37.3191 14.2849 37.3191 14.2849C37.3191 14.2849 37.3191 14.2849 37.3191 14.2849C37.3191 14.2849 37.3191 14.2849 37.3191 14.2849C37.3191 14.2849 37.3191 14.2848 37.3191 14.2848C37.3191 14.2848 37.3191 14.2848 37.3191 14.2848C37.3191 14.2848 37.3191 14.2848 37.3191 14.2848C37.3191 14.2848 37.3191 14.2848 37.3191 14.2847C37.3191 14.2847 37.3191 14.2847 37.3191 14.2847C37.3191 14.2847 37.3191 14.2847 37.3191 14.2847C37.3191 14.2847 37.3191 14.2847 37.3191 14.2847C37.3191 14.2846 37.3191 14.2846 37.3191 14.2846C37.3191 14.2846 37.3191 14.2846 37.3191 14.2846C37.3191 14.2846 37.3191 14.2846 37.3191 14.2846C37.3191 14.2845 37.3191 14.2845 37.3191 14.2845C37.3191 14.2845 37.3191 14.2845 37.3191 14.2845C37.3191 14.2845 37.3191 14.2845 37.3191 14.2845C37.3191 14.2844 37.3191 14.2844 37.3191 14.2844C37.3191 14.2844 37.3191 14.2844 37.3191 14.2844C37.3191 14.2844 37.3191 14.2844 37.3191 14.2844C37.3191 14.2843 37.3191 14.2843 37.3191 14.2843C37.3191 14.2843 37.3191 14.2843 37.3191 14.2843C37.3191 14.2843 37.3191 14.2843 37.3191 14.2843C37.3191 14.2842 37.3191 14.2842 37.3191 14.2842C37.3191 14.2842 37.3191 14.2842 37.3191 14.2842C37.3191 14.2842 37.3191 14.2842 37.3191 14.2841C37.3191 14.2841 37.3191 14.2841 37.3191 14.2841C37.3191 14.2841 37.3191 14.2841 37.3191 14.2841C37.3191 14.2841 37.3191 14.284 37.3191 14.284C37.3191 14.284 37.3191 14.284 37.3191 14.284C37.3191 14.284 37.3191 14.284 37.3191 14.284C37.3191 14.2839 37.3191 14.2839 37.3191 14.2839C37.3191 14.2839 37.3191 14.2839 37.3191 14.2839C37.3191 14.2839 37.3191 14.2838 37.3191 14.2838C37.3191 14.2838 37.3191 14.2838 37.3191 14.2838C37.3191 14.2838 37.3191 14.2838 37.3191 14.2838C37.3191 14.2837 37.3191 14.2837 37.3191 14.2837C37.3191 14.2837 37.3191 14.2837 37.3191 14.2837C37.3191 14.2837 37.3191 14.2836 37.3191 14.2836C37.3191 14.2836 37.3191 14.2836 37.3191 14.2836C37.3191 14.2836 37.3191 14.2836 37.3191 14.2835C37.3191 14.2835 37.3191 14.2835 37.3191 14.2835C37.3191 14.2835 37.3191 14.2835 37.3191 14.2835C37.3191 14.2834 37.3191 14.2834 37.3191 14.2834C37.3191 14.2834 37.3191 14.2834 37.3191 14.2834C37.3191 14.2834 37.3191 14.2833 37.3191 14.2833C37.3191 14.2833 37.3191 14.2833 37.3191 14.2833C37.3191 14.2833 37.3191 14.2832 37.3191 14.2832C37.3191 14.2832 37.3191 14.2832 37.3191 14.2832C37.3191 14.2832 37.3191 14.2832 37.3191 14.2831C37.3191 14.2831 37.3191 14.2831 37.3191 14.2831C37.3191 14.2831 37.3191 14.2831 37.3191 14.283C37.3191 14.283 37.3191 14.283 37.3191 14.283C37.3191 14.283 37.3191 14.283 37.3191 14.2829C37.3191 14.2829 37.3191 14.2829 37.3191 14.2829C37.3191 14.2829 37.3191 14.2829 37.3191 14.2829C37.3191 14.2828 37.3191 14.2828 37.3191 14.2828C37.3191 14.2828 37.3191 14.2828 37.3191 14.2828C37.3191 14.2827 37.3191 14.2827 37.3191 14.2827C37.3191 14.2827 37.3191 14.2827 37.3191 14.2827C37.3191 14.2826 37.3191 14.2826 37.3191 14.2826C37.3191 14.2826 37.3191 14.2826 37.3191 14.2825C37.3191 14.2825 37.3191 14.2825 37.3191 14.2825C37.3191 14.2825 37.3191 14.2825 37.3191 14.2824C37.3191 14.2824 37.3191 14.2824 37.3191 14.2824C37.3191 14.2824 37.3191 14.2824 37.3191 14.2823C37.3191 14.2823 37.3191 14.2823 37.3191 14.2823C37.3191 14.2823 37.3191 14.2822 37.3191 14.2822C37.3191 14.2822 37.3191 14.2822 37.3191 14.2822C37.3191 14.2822 37.3191 14.2821 37.3191 14.2821C37.3191 14.2821 37.3191 14.2821 37.3191 14.2821C37.3191 14.282 37.3191 14.282 37.3191 14.282C37.3191 14.282 37.3191 14.282 37.3191 14.2819C37.3191 14.2819 37.3191 14.2819 37.3191 14.2819C37.3191 14.2819 37.3191 14.2819 37.3191 14.2818C37.3191 14.2818 37.3191 14.2818 37.3191 14.2818C37.3191 14.2818 37.3191 14.2817 37.3191 14.2817C37.3191 14.2817 37.3191 14.2817 37.3191 14.2817C37.3191 14.2816 37.3191 14.2816 37.3191 14.2816C37.3191 14.2816 37.3191 14.2816 37.3191 14.2815C37.3191 14.2815 37.3191 14.2815 37.3191 14.2815C37.3191 14.2815 37.3191 14.2814 37.3191 14.2814C37.3191 14.2814 37.3191 14.2814 37.3191 14.2814C37.3191 14.2813 37.3191 14.2813 37.3191 14.2813C37.3191 14.2813 37.3191 14.2812 37.3191 14.2812C37.3191 14.2812 37.3191 14.2812 37.3191 14.2812C37.3191 14.2811 37.3191 14.2811 37.3191 14.2811C37.3191 14.2811 37.3191 14.2811 37.3191 14.281C37.3191 14.281 37.3191 14.281 37.3191 14.281C37.3191 14.2809 37.3191 14.2809 37.3191 14.2809C37.3191 14.2809 37.3191 14.2809 37.3191 14.2808C37.3191 14.2808 37.3191 14.2808 37.3191 14.2808C37.3191 14.2808 37.3191 14.2807 37.3191 14.2807C37.3191 14.2807 37.3191 14.2807 37.3191 14.2806C37.3191 14.2806 37.3191 14.2806 37.3191 14.2806C37.3191 14.2806 37.3191 14.2805 37.3191 14.2805C37.3191 14.2805 37.3191 14.2805 37.3191 14.2804C37.3191 14.2804 37.3191 14.2804 37.3191 14.2804C37.3191 14.2803 37.3191 14.2803 37.3191 14.2803C37.3191 14.2803 37.3191 14.2802 37.3191 14.2802C37.3191 14.2802 37.3191 14.2802 37.3191 14.2802C37.3191 14.2801 37.3191 14.2801 37.3191 14.2801C37.3191 14.2801 37.3191 14.28 37.3191 14.28C37.3191 14.28 37.3191 14.28 37.3191 14.2799C37.3191 14.2799 37.3191 14.2799 37.3191 14.2799C37.3191 14.2798 37.3191 14.2798 37.3191 14.2798C37.3191 14.2798 37.3191 14.2797 37.3191 14.2797C37.3191 14.2797 37.3191 14.2797 37.3191 14.2796C37.3191 14.2796 37.3191 14.2796 37.3191 14.2796C37.3191 14.2795 37.3191 14.2795 37.3191 14.2795C37.3191 14.2795 37.3191 14.2794 37.3191 14.2794C37.3191 14.2794 37.3191 14.2794 37.3191 14.2793C37.3191 14.2793 37.3191 14.2793 37.3191 14.2793C37.3191 14.2792 37.3191 14.2792 37.3191 14.2792C37.3191 14.2792 37.3191 14.2791 37.3191 14.2791C37.3191 14.2791 37.3191 14.2791 37.3191 14.279C37.3191 14.279 37.3191 14.279 37.3191 14.2789C37.3191 14.2789 37.3191 14.2789 37.3191 14.2789C37.3191 14.2788 37.3191 14.2788 37.3191 14.2788C37.3191 14.2788 37.3191 14.2787 37.3191 14.2787C37.3191 14.2787 37.3191 14.2787 37.3191 14.2786C37.3191 14.2786 37.3191 14.2786 37.3191 14.2785C37.3191 14.2785 37.3191 14.2785 37.3191 14.2785C37.3191 14.2784 37.3191 14.2784 37.3191 14.2784C37.3191 14.2783 37.3191 14.2783 37.3191 14.2783C37.3191 14.2783 37.3191 14.2782 37.3191 14.2782C37.3191 14.2782 37.3191 14.2781 37.3191 14.2781C37.3191 14.2781 37.3191 14.2781 37.3191 14.278C37.3191 14.278 37.3191 14.278 37.3191 14.2779C37.3191 14.2779 37.3191 14.2779 37.3191 14.2779C37.3191 14.2778 37.3191 14.2778 37.3191 14.2778C37.3191 14.2777 37.3191 14.2777 37.3191 14.2777C37.3191 14.2777 37.3191 14.2776 37.3191 14.2776C37.3191 14.2776 37.3191 14.2775 37.3191 14.2775C37.3191 14.2775 37.3191 14.2774 37.3191 14.2774C37.3191 14.2774 37.3191 14.2774 37.3191 14.2773C37.3191 14.2773 37.3191 14.2773 37.3191 14.2772C37.3191 14.2772 37.3191 14.2772 37.3191 14.2771C37.3191 14.2771 37.3191 14.2771 37.3191 14.277C37.3191 14.277 37.3191 14.277 37.3191 14.277C37.3191 14.2769 37.3191 14.2769 37.3191 14.2769C37.3191 14.2768 37.3191 14.2768 37.3191 14.2768C37.3191 14.2767 37.3191 14.2767 37.3191 14.2767C37.3191 14.2766 37.3191 14.2766 37.3191 14.2766C37.3191 14.2765 37.3191 14.2765 37.3191 14.2765C37.3191 14.2765 37.3191 14.2764 37.3191 14.2764C37.3191 14.2764 37.3191 14.2763 37.3191 14.2763C37.3191 14.2763 37.3191 14.2762 37.3191 14.2762C37.3191 14.2762 37.3191 14.2761 37.3191 14.2761C37.3191 14.2761 37.3191 14.276 37.3191 14.276C37.3191 14.276 37.3191 14.2759 37.3191 14.2759C37.3191 14.2759 37.3191 14.2758 37.3191 14.2758C37.3191 14.2758 37.3191 14.2757 37.3191 14.2757C37.3191 14.2757 37.3191 14.2756 37.3191 14.2756C37.3191 14.2756 37.3191 14.2755 37.3191 14.2755C37.3191 14.2755 37.3191 14.2754 37.3191 14.2754C37.3191 14.2753 37.3191 14.2753 37.3191 14.2753C37.3191 14.2752 37.3191 14.2752 37.3191 14.2752C37.3191 14.2751 37.3191 14.2751 37.3191 14.2751C37.3191 14.275 37.3191 14.275 37.3191 14.275C37.3191 14.2749 37.3191 14.2749 37.3191 14.2749C37.3191 14.2748 37.3191 14.2748 37.3191 14.2748C37.3191 14.2747 37.3191 14.2747 37.3191 14.2746C37.3191 14.2746 37.3191 14.2746 37.3191 14.2745C37.3191 14.2745 37.3191 14.2745 37.3191 14.2744C37.3191 14.2744 37.3191 14.2744 37.3191 14.2743C37.3191 14.2743 37.3191 14.2742 37.3191 14.2742C37.3191 14.2742 37.3191 14.2741 37.3191 14.2741C37.3191 14.2741 37.3191 14.274 37.3191 14.274C37.3191 14.274 37.3191 14.2739 37.3191 14.2739C37.3191 14.2738 37.3191 14.2738 37.3191 14.2738C37.3191 14.2737 37.3191 14.2737 37.3191 14.2736C37.3191 14.2736 37.3191 14.2736 37.3191 14.2735C37.3191 14.2735 37.3191 14.2735 37.3191 14.2734C37.3191 14.2734 37.3191 14.2733 37.3191 14.2733C37.3191 14.2733 37.3191 14.2732 37.3191 14.2732C37.3191 14.2732 37.3191 14.2731 37.3191 14.2731C37.3191 14.273 37.3191 14.273 37.3191 14.273C37.3191 14.2729 37.3191 14.2729 37.3191 14.2728C37.3191 14.2728 37.3191 14.2728 37.3191 14.2727C37.3191 14.2727 37.3191 14.2726 37.3191 14.2726C37.3191 14.2726 37.3191 14.2725 37.3191 14.2725C37.3191 14.2724 37.3191 14.2724 37.3191 14.2724C37.3191 14.2723 37.3191 14.2723 37.3191 14.2722C37.3191 14.2722 37.3191 14.2722 37.3191 14.2721C37.3191 14.2721 37.3191 14.272 37.3191 14.272C37.3191 14.2719 37.3191 14.2719 37.3191 14.2719C37.3191 14.2718 37.3191 14.2718 37.3191 14.2717C37.3191 14.2717 37.3191 14.2717 37.3191 14.2716C37.3191 14.2716 37.3191 14.2715 37.3191 14.2715C37.3191 14.2715 37.3191 14.2714 37.3191 14.2714C37.3191 14.2713 37.3191 14.2713 37.3191 14.2712C37.3191 14.2712 37.3191 14.2712 37.3191 14.2711C37.3191 14.2711 37.3191 14.271 37.3191 14.271C37.3191 14.2709 37.3191 14.2709 37.3191 14.2709C37.3191 14.2708 37.3191 14.2708 37.3191 14.2707C37.3191 14.2707 37.3191 14.2706 37.3191 14.2706C37.3191 14.2705 37.3191 14.2705 37.3191 14.2705C37.3191 14.2704 37.3191 14.2704 37.3191 14.2703C37.3191 14.2703 37.3191 14.2702 37.3191 14.2702C37.3191 14.2702 37.3191 14.2701 37.3191 14.2701C37.3191 14.27 37.3191 14.27 37.3191 14.2699C37.3191 14.2699 37.3191 14.2698 37.3191 14.2698C37.3191 14.2697 37.3191 14.2697 37.3191 14.2697C37.3191 14.2696 37.3191 14.2696 37.3191 14.2695C37.3191 14.2695 37.3191 14.2694 37.3191 14.2694C37.3191 14.2693 37.3191 14.2693 37.3191 14.2692C37.3191 14.2692 37.3191 14.2692 37.3191 14.2691C37.3191 14.2691 37.3191 14.269 37.3191 14.269C37.3191 14.2689 37.3191 14.2689 37.3191 14.2688C37.3191 14.2688 37.3191 14.2687 37.3191 14.2687C37.3191 14.2686 37.3191 14.2686 37.3191 14.2685C37.3191 14.2685 37.3191 14.2684 37.3191 14.2684C37.3191 14.2684 37.3191 14.2683 37.3191 14.2683C37.3191 14.2682 37.3191 14.2682 37.3191 14.2681C37.3191 14.2681 37.3191 14.268 37.3191 14.268C37.3191 14.2679 37.3191 14.2679 37.3191 14.2678C37.3191 14.2678 37.3191 14.2677 37.3191 14.2677C37.3191 14.2676 37.3191 14.2676 37.3191 14.2675C37.3191 14.2675 37.3191 14.2674 37.3191 14.2674C37.3191 14.2673 37.3191 14.2673 37.3191 14.2672C37.3191 14.2672 37.3191 14.2671 37.3191 14.2671C37.3191 14.267 37.3191 14.267 37.3191 14.2669C37.3191 14.2669 37.3191 14.2668 37.3191 14.2668C37.3191 14.2667 37.3191 14.2667 37.3191 14.2666C37.3191 14.2666 37.3191 14.2665 37.3191 14.2665C37.3191 14.2664 37.3191 14.2664 37.3191 14.2663C37.3191 14.2663 37.3191 14.2662 37.3191 14.2662C37.3191 14.2661 37.3191 14.2661 37.3191 14.266C37.3191 14.266 37.3191 14.2659 37.3191 14.2659C37.3191 14.2658 37.3191 14.2658 37.3191 14.2657C37.3191 14.2657 37.3191 14.2656 37.3191 14.2656C37.3191 14.2655 37.3191 14.2654 37.3191 14.2654C37.3191 14.2653 37.3191 14.2653 37.3191 14.2652C37.3191 14.2652 37.3191 14.2651 37.3191 14.2651C37.3191 14.265 37.3191 14.265 37.3191 14.2649C37.3191 14.2649 37.3191 14.2648 37.3191 14.2648C37.3191 14.2647 37.3191 14.2646 37.3191 14.2646C37.3191 14.2645 37.3191 14.2645 37.3191 14.2644C37.3191 14.2644 37.3191 14.2643 37.3191 14.2643C37.3191 14.2642 37.3191 14.2642 37.3191 14.2641C37.3191 14.264 37.3191 14.264 37.3191 14.2639C37.3191 14.2639 37.3191 14.2638 37.3191 14.2638C37.3191 14.2637 37.3191 14.2637 37.3191 14.2636C37.3191 14.2635 37.3191 14.2635 37.3191 14.2634C37.3191 14.2634 37.3191 14.2633 37.3191 14.2633C37.3191 14.2632 37.3191 14.2632 37.3191 14.2631C37.3191 14.263 37.3191 14.263 37.3191 14.2629C37.3191 14.2629 37.3191 14.2628 37.3191 14.2628C37.3191 14.2627 37.3191 14.2626 37.3191 14.2626C37.3191 14.2625 37.3191 14.2625 37.3191 14.2624C37.3191 14.2624 37.3191 14.2623 37.3191 14.2622C37.3191 14.2622 37.3191 14.2621 37.3191 14.2621C37.3191 14.262 37.3191 14.262 37.3191 14.2619C37.3191 14.2618 37.3191 14.2618 37.3191 14.2617C37.3191 14.2617 37.3191 14.2616 37.3191 14.2615C37.3191 14.2615 37.3191 14.2614 37.3191 14.2614C37.3191 14.2613 37.3191 14.2612 37.3191 14.2612C37.3191 14.2611 37.3191 14.2611 37.3191 14.261C37.3191 14.2609 37.3191 14.2609 37.3191 14.2608C37.3191 14.2608 37.3191 14.2607 37.3191 14.2606C37.3191 14.2606 37.3191 14.2605 37.3191 14.2605C37.3191 14.2604 37.3191 14.2603 37.3191 14.2603C37.3191 14.2602 37.3191 14.2602 37.3191 14.2601C37.3191 14.26 37.3191 14.26 37.3191 14.2599C37.3191 14.2599 37.3191 14.2598 37.3191 14.2597C37.3191 14.2597 37.3191 14.2596 37.3191 14.2595C37.3191 14.2595 37.3191 14.2594 37.3191 14.2594C37.3191 14.2593 37.3191 14.2592 37.3191 14.2592C37.3191 14.2591 37.3191 14.259 37.3191 14.259C37.3191 14.2589 37.3191 14.2589 37.3191 14.2588C37.3191 14.2587 37.3191 14.2587 37.3191 14.2586C37.3191 14.2585 37.3191 14.2585 37.3191 14.2584C37.3191 14.2583 37.3191 14.2583 37.3191 14.2582C37.3191 14.2582 37.3191 14.2581 37.3191 14.258C37.3191 14.258 37.3191 14.2579 37.3191 14.2578C37.3191 14.2578 37.3191 14.2577 37.3191 14.2576C37.3191 14.2576 37.3191 14.2575 37.3191 14.2574C37.3191 14.2574 37.3191 14.2573 37.3191 14.2572C37.3191 14.2572 37.3191 14.2571 37.3191 14.2571C37.3191 14.257 37.3191 14.2569 37.3191 14.2569C37.3191 14.2568 37.3191 14.2567 37.3191 14.2567C37.3191 14.2566 37.3191 14.2565 37.3191 14.2565C37.3191 14.2564 37.3191 14.2563 37.3191 14.2563C37.3191 14.2562 37.3191 14.2561 37.3191 14.2561C37.3191 14.256 37.3191 14.2559 37.3191 14.2559C37.3191 14.2558 37.3191 14.2557 37.3191 14.2556C37.3191 14.2556 37.3191 14.2555 37.3191 14.2554C37.3191 14.2554 37.3191 14.2553 37.3191 14.2552C37.3191 14.2552 37.3191 14.2551 37.3191 14.255C37.3191 14.255 37.3191 14.2549 37.3191 14.2548C37.3191 14.2548 37.3191 14.2547 37.3191 14.2546C37.3191 14.2545 37.3191 14.2545 37.3191 14.2544C37.3191 14.2543 37.3191 14.2543 37.3191 14.2542C37.3191 14.2541 37.3191 14.2541 37.3191 14.254C37.3191 14.2539 37.3191 14.2538 37.3191 14.2538C37.3191 14.2537 37.3191 14.2536 37.3191 14.2536C37.3191 14.2535 37.3191 14.2534 37.3191 14.2534C37.3191 14.2533 37.3191 14.2532 37.3191 14.2531C37.3191 14.2531 37.3191 14.253 37.3191 14.2529C37.3191 14.2529 37.3191 14.2528 37.3191 14.2527C37.3191 14.2526 37.3191 14.2526 37.3191 14.2525C37.3191 14.2524 37.3191 14.2523 37.3191 14.2523C37.3191 14.2522 37.3191 14.2521 37.3191 14.2521C37.3191 14.252 37.3191 14.2519 37.3191 14.2518C37.3191 14.2518 37.3191 14.2517 37.3191 14.2516C37.3191 14.2515 37.3191 14.2515 37.3191 14.2514C37.3191 14.2513 37.3191 14.2512 37.3191 14.2512C37.3191 14.2511 37.3191 14.251 37.3191 14.2509C37.3191 14.2509 37.3191 14.2508 37.3191 14.2507C37.3191 14.2506 37.3191 14.2506 37.3191 14.2505C37.3191 14.2504 37.3191 14.2503 37.3191 14.2503C37.3191 14.2502 37.3191 14.2501 37.3191 14.25C37.3191 14.25 37.3191 14.2499 37.3191 14.2498C37.3191 14.2497 37.3191 14.2497 37.3191 14.2496C37.3191 14.2495 37.3191 14.2494 37.3191 14.2494C37.3191 14.2493 37.3191 14.2492 37.3191 14.2491C37.3191 14.2491 37.3191 14.249 37.3191 14.2489C37.3191 14.2488 37.3191 14.2487 37.3191 14.2487C37.3191 14.2486 37.3191 14.2485 37.3191 14.2484C37.3191 14.2484 37.3191 14.2483 37.3191 14.2482C37.3191 14.2481 37.3191 14.248 37.3191 14.248C37.3191 14.2479 37.3191 14.2478 37.3191 14.2477C37.3191 14.2476 37.3191 14.2476 37.3191 14.2475C37.3191 14.2474 37.3191 14.2473 37.3191 14.2472C37.3191 14.2472 37.3191 14.2471 37.3191 14.247C37.3191 14.2469 37.3191 14.2468 37.3191 14.2468C37.3191 14.2467 37.3191 14.2466 37.3191 14.2465C37.3191 14.2464 37.3191 14.2464 37.3191 14.2463C37.3191 14.2462 37.3191 14.2461 37.3191 14.246C37.3191 14.246 37.3191 14.2459 37.3191 14.2458C37.3191 14.2457 37.3191 14.2456 37.3191 14.2455C37.3191 14.2455 37.3191 14.2454 37.3191 14.2453C37.3191 14.2452 37.3191 14.2451 37.3191 14.2451C37.3191 14.245 37.3191 14.2449 37.3191 14.2448C37.3191 14.2447 37.3191 14.2446 37.3191 14.2446C37.3191 14.2445 37.3191 14.2444 37.3191 14.2443C37.3191 14.2442 37.3191 14.2441 37.3191 14.2441C37.3191 14.244 37.3191 14.2439 37.3191 14.2438C37.3191 14.2437 37.3191 14.2436 37.3191 14.2435C37.3191 14.2435 37.3191 14.2434 37.3191 14.2433C37.3191 14.2432 37.3191 14.2431 37.3191 14.243C37.3191 14.243 37.3191 14.2429 37.3191 14.2428C37.3191 14.2427 37.3191 14.2426 37.3191 14.2425H31.3191C31.3191 14.2426 31.3191 14.2427 31.3191 14.2428C31.3191 14.2429 31.3191 14.243 31.3191 14.243C31.3191 14.2431 31.3191 14.2432 31.3191 14.2433C31.3191 14.2434 31.3191 14.2435 31.3191 14.2435C31.3191 14.2436 31.3191 14.2437 31.3191 14.2438C31.3191 14.2439 31.3191 14.244 31.3191 14.2441C31.3191 14.2441 31.3191 14.2442 31.3191 14.2443C31.3191 14.2444 31.3191 14.2445 31.3191 14.2446C31.3191 14.2446 31.3191 14.2447 31.3191 14.2448C31.3191 14.2449 31.3191 14.245 31.3191 14.2451C31.3191 14.2451 31.3191 14.2452 31.3191 14.2453C31.3191 14.2454 31.3191 14.2455 31.3191 14.2455C31.3191 14.2456 31.3191 14.2457 31.3191 14.2458C31.3191 14.2459 31.3191 14.246 31.3191 14.246C31.3191 14.2461 31.3191 14.2462 31.3191 14.2463C31.3191 14.2464 31.3191 14.2464 31.3191 14.2465C31.3191 14.2466 31.3191 14.2467 31.3191 14.2468C31.3191 14.2468 31.3191 14.2469 31.3191 14.247C31.3191 14.2471 31.3191 14.2472 31.3191 14.2472C31.3191 14.2473 31.3191 14.2474 31.3191 14.2475C31.3191 14.2476 31.3191 14.2476 31.3191 14.2477C31.3191 14.2478 31.3191 14.2479 31.3191 14.248C31.3191 14.248 31.3191 14.2481 31.3191 14.2482C31.3191 14.2483 31.3191 14.2484 31.3191 14.2484C31.3191 14.2485 31.3191 14.2486 31.3191 14.2487C31.3191 14.2487 31.3191 14.2488 31.3191 14.2489C31.3191 14.249 31.3191 14.2491 31.3191 14.2491C31.3191 14.2492 31.3191 14.2493 31.3191 14.2494C31.3191 14.2494 31.3191 14.2495 31.3191 14.2496C31.3191 14.2497 31.3191 14.2497 31.3191 14.2498C31.3191 14.2499 31.3191 14.25 31.3191 14.25C31.3191 14.2501 31.3191 14.2502 31.3191 14.2503C31.3191 14.2503 31.3191 14.2504 31.3191 14.2505C31.3191 14.2506 31.3191 14.2506 31.3191 14.2507C31.3191 14.2508 31.3191 14.2509 31.3191 14.2509C31.3191 14.251 31.3191 14.2511 31.3191 14.2512C31.3191 14.2512 31.3191 14.2513 31.3191 14.2514C31.3191 14.2515 31.3191 14.2515 31.3191 14.2516C31.3191 14.2517 31.3191 14.2518 31.3191 14.2518C31.3191 14.2519 31.3191 14.252 31.3191 14.2521C31.3191 14.2521 31.3191 14.2522 31.3191 14.2523C31.3191 14.2523 31.3191 14.2524 31.3191 14.2525C31.3191 14.2526 31.3191 14.2526 31.3191 14.2527C31.3191 14.2528 31.3191 14.2529 31.3191 14.2529C31.3191 14.253 31.3191 14.2531 31.3191 14.2531C31.3191 14.2532 31.3191 14.2533 31.3191 14.2534C31.3191 14.2534 31.3191 14.2535 31.3191 14.2536C31.3191 14.2536 31.3191 14.2537 31.3191 14.2538C31.3191 14.2538 31.3191 14.2539 31.3191 14.254C31.3191 14.2541 31.3191 14.2541 31.3191 14.2542C31.3191 14.2543 31.3191 14.2543 31.3191 14.2544C31.3191 14.2545 31.3191 14.2545 31.3191 14.2546C31.3191 14.2547 31.3191 14.2548 31.3191 14.2548C31.3191 14.2549 31.3191 14.255 31.3191 14.255C31.3191 14.2551 31.3191 14.2552 31.3191 14.2552C31.3191 14.2553 31.3191 14.2554 31.3191 14.2554C31.3191 14.2555 31.3191 14.2556 31.3191 14.2556C31.3191 14.2557 31.3191 14.2558 31.3191 14.2559C31.3191 14.2559 31.3191 14.256 31.3191 14.2561C31.3191 14.2561 31.3191 14.2562 31.3191 14.2563C31.3191 14.2563 31.3191 14.2564 31.3191 14.2565C31.3191 14.2565 31.3191 14.2566 31.3191 14.2567C31.3191 14.2567 31.3191 14.2568 31.3191 14.2569C31.3191 14.2569 31.3191 14.257 31.3191 14.2571C31.3191 14.2571 31.3191 14.2572 31.3191 14.2572C31.3191 14.2573 31.3191 14.2574 31.3191 14.2574C31.3191 14.2575 31.3191 14.2576 31.3191 14.2576C31.3191 14.2577 31.3191 14.2578 31.3191 14.2578C31.3191 14.2579 31.3191 14.258 31.3191 14.258C31.3191 14.2581 31.3191 14.2582 31.3191 14.2582C31.3191 14.2583 31.3191 14.2583 31.3191 14.2584C31.3191 14.2585 31.3191 14.2585 31.3191 14.2586C31.3191 14.2587 31.3191 14.2587 31.3191 14.2588C31.3191 14.2589 31.3191 14.2589 31.3191 14.259C31.3191 14.259 31.3191 14.2591 31.3191 14.2592C31.3191 14.2592 31.3191 14.2593 31.3191 14.2594C31.3191 14.2594 31.3191 14.2595 31.3191 14.2595C31.3191 14.2596 31.3191 14.2597 31.3191 14.2597C31.3191 14.2598 31.3191 14.2599 31.3191 14.2599C31.3191 14.26 31.3191 14.26 31.3191 14.2601C31.3191 14.2602 31.3191 14.2602 31.3191 14.2603C31.3191 14.2603 31.3191 14.2604 31.3191 14.2605C31.3191 14.2605 31.3191 14.2606 31.3191 14.2606C31.3191 14.2607 31.3191 14.2608 31.3191 14.2608C31.3191 14.2609 31.3191 14.2609 31.3191 14.261C31.3191 14.2611 31.3191 14.2611 31.3191 14.2612C31.3191 14.2612 31.3191 14.2613 31.3191 14.2614C31.3191 14.2614 31.3191 14.2615 31.3191 14.2615C31.3191 14.2616 31.3191 14.2617 31.3191 14.2617C31.3191 14.2618 31.3191 14.2618 31.3191 14.2619C31.3191 14.262 31.3191 14.262 31.3191 14.2621C31.3191 14.2621 31.3191 14.2622 31.3191 14.2622C31.3191 14.2623 31.3191 14.2624 31.3191 14.2624C31.3191 14.2625 31.3191 14.2625 31.3191 14.2626C31.3191 14.2626 31.3191 14.2627 31.3191 14.2628C31.3191 14.2628 31.3191 14.2629 31.3191 14.2629C31.3191 14.263 31.3191 14.263 31.3191 14.2631C31.3191 14.2632 31.3191 14.2632 31.3191 14.2633C31.3191 14.2633 31.3191 14.2634 31.3191 14.2634C31.3191 14.2635 31.3191 14.2635 31.3191 14.2636C31.3191 14.2637 31.3191 14.2637 31.3191 14.2638C31.3191 14.2638 31.3191 14.2639 31.3191 14.2639C31.3191 14.264 31.3191 14.264 31.3191 14.2641C31.3191 14.2642 31.3191 14.2642 31.3191 14.2643C31.3191 14.2643 31.3191 14.2644 31.3191 14.2644C31.3191 14.2645 31.3191 14.2645 31.3191 14.2646C31.3191 14.2646 31.3191 14.2647 31.3191 14.2648C31.3191 14.2648 31.3191 14.2649 31.3191 14.2649C31.3191 14.265 31.3191 14.265 31.3191 14.2651C31.3191 14.2651 31.3191 14.2652 31.3191 14.2652C31.3191 14.2653 31.3191 14.2653 31.3191 14.2654C31.3191 14.2654 31.3191 14.2655 31.3191 14.2656C31.3191 14.2656 31.3191 14.2657 31.3191 14.2657C31.3191 14.2658 31.3191 14.2658 31.3191 14.2659C31.3191 14.2659 31.3191 14.266 31.3191 14.266C31.3191 14.2661 31.3191 14.2661 31.3191 14.2662C31.3191 14.2662 31.3191 14.2663 31.3191 14.2663C31.3191 14.2664 31.3191 14.2664 31.3191 14.2665C31.3191 14.2665 31.3191 14.2666 31.3191 14.2666C31.3191 14.2667 31.3191 14.2667 31.3191 14.2668C31.3191 14.2668 31.3191 14.2669 31.3191 14.2669C31.3191 14.267 31.3191 14.267 31.3191 14.2671C31.3191 14.2671 31.3191 14.2672 31.3191 14.2672C31.3191 14.2673 31.3191 14.2673 31.3191 14.2674C31.3191 14.2674 31.3191 14.2675 31.3191 14.2675C31.3191 14.2676 31.3191 14.2676 31.3191 14.2677C31.3191 14.2677 31.3191 14.2678 31.3191 14.2678C31.3191 14.2679 31.3191 14.2679 31.3191 14.268C31.3191 14.268 31.3191 14.2681 31.3191 14.2681C31.3191 14.2682 31.3191 14.2682 31.3191 14.2683C31.3191 14.2683 31.3191 14.2684 31.3191 14.2684C31.3191 14.2684 31.3191 14.2685 31.3191 14.2685C31.3191 14.2686 31.3191 14.2686 31.3191 14.2687C31.3191 14.2687 31.3191 14.2688 31.3191 14.2688C31.3191 14.2689 31.3191 14.2689 31.3191 14.269C31.3191 14.269 31.3191 14.2691 31.3191 14.2691C31.3191 14.2692 31.3191 14.2692 31.3191 14.2692C31.3191 14.2693 31.3191 14.2693 31.3191 14.2694C31.3191 14.2694 31.3191 14.2695 31.3191 14.2695C31.3191 14.2696 31.3191 14.2696 31.3191 14.2697C31.3191 14.2697 31.3191 14.2697 31.3191 14.2698C31.3191 14.2698 31.3191 14.2699 31.3191 14.2699C31.3191 14.27 31.3191 14.27 31.3191 14.2701C31.3191 14.2701 31.3191 14.2702 31.3191 14.2702C31.3191 14.2702 31.3191 14.2703 31.3191 14.2703C31.3191 14.2704 31.3191 14.2704 31.3191 14.2705C31.3191 14.2705 31.3191 14.2705 31.3191 14.2706C31.3191 14.2706 31.3191 14.2707 31.3191 14.2707C31.3191 14.2708 31.3191 14.2708 31.3191 14.2709C31.3191 14.2709 31.3191 14.2709 31.3191 14.271C31.3191 14.271 31.3191 14.2711 31.3191 14.2711C31.3191 14.2712 31.3191 14.2712 31.3191 14.2712C31.3191 14.2713 31.3191 14.2713 31.3191 14.2714C31.3191 14.2714 31.3191 14.2715 31.3191 14.2715C31.3191 14.2715 31.3191 14.2716 31.3191 14.2716C31.3191 14.2717 31.3191 14.2717 31.3191 14.2717C31.3191 14.2718 31.3191 14.2718 31.3191 14.2719C31.3191 14.2719 31.3191 14.2719 31.3191 14.272C31.3191 14.272 31.3191 14.2721 31.3191 14.2721C31.3191 14.2722 31.3191 14.2722 31.3191 14.2722C31.3191 14.2723 31.3191 14.2723 31.3191 14.2724C31.3191 14.2724 31.3191 14.2724 31.3191 14.2725C31.3191 14.2725 31.3191 14.2726 31.3191 14.2726C31.3191 14.2726 31.3191 14.2727 31.3191 14.2727C31.3191 14.2728 31.3191 14.2728 31.3191 14.2728C31.3191 14.2729 31.3191 14.2729 31.3191 14.273C31.3191 14.273 31.3191 14.273 31.3191 14.2731C31.3191 14.2731 31.3191 14.2732 31.3191 14.2732C31.3191 14.2732 31.3191 14.2733 31.3191 14.2733C31.3191 14.2733 31.3191 14.2734 31.3191 14.2734C31.3191 14.2735 31.3191 14.2735 31.3191 14.2735C31.3191 14.2736 31.3191 14.2736 31.3191 14.2736C31.3191 14.2737 31.3191 14.2737 31.3191 14.2738C31.3191 14.2738 31.3191 14.2738 31.3191 14.2739C31.3191 14.2739 31.3191 14.274 31.3191 14.274C31.3191 14.274 31.3191 14.2741 31.3191 14.2741C31.3191 14.2741 31.3191 14.2742 31.3191 14.2742C31.3191 14.2742 31.3191 14.2743 31.3191 14.2743C31.3191 14.2744 31.3191 14.2744 31.3191 14.2744C31.3191 14.2745 31.3191 14.2745 31.3191 14.2745C31.3191 14.2746 31.3191 14.2746 31.3191 14.2746C31.3191 14.2747 31.3191 14.2747 31.3191 14.2748C31.3191 14.2748 31.3191 14.2748 31.3191 14.2749C31.3191 14.2749 31.3191 14.2749 31.3191 14.275C31.3191 14.275 31.3191 14.275 31.3191 14.2751C31.3191 14.2751 31.3191 14.2751 31.3191 14.2752C31.3191 14.2752 31.3191 14.2752 31.3191 14.2753C31.3191 14.2753 31.3191 14.2753 31.3191 14.2754C31.3191 14.2754 31.3191 14.2755 31.3191 14.2755C31.3191 14.2755 31.3191 14.2756 31.3191 14.2756C31.3191 14.2756 31.3191 14.2757 31.3191 14.2757C31.3191 14.2757 31.3191 14.2758 31.3191 14.2758C31.3191 14.2758 31.3191 14.2759 31.3191 14.2759C31.3191 14.2759 31.3191 14.276 31.3191 14.276C31.3191 14.276 31.3191 14.2761 31.3191 14.2761C31.3191 14.2761 31.3191 14.2762 31.3191 14.2762C31.3191 14.2762 31.3191 14.2763 31.3191 14.2763C31.3191 14.2763 31.3191 14.2764 31.3191 14.2764C31.3191 14.2764 31.3191 14.2765 31.3191 14.2765C31.3191 14.2765 31.3191 14.2765 31.3191 14.2766C31.3191 14.2766 31.3191 14.2766 31.3191 14.2767C31.3191 14.2767 31.3191 14.2767 31.3191 14.2768C31.3191 14.2768 31.3191 14.2768 31.3191 14.2769C31.3191 14.2769 31.3191 14.2769 31.3191 14.277C31.3191 14.277 31.3191 14.277 31.3191 14.277C31.3191 14.2771 31.3191 14.2771 31.3191 14.2771C31.3191 14.2772 31.3191 14.2772 31.3191 14.2772C31.3191 14.2773 31.3191 14.2773 31.3191 14.2773C31.3191 14.2774 31.3191 14.2774 31.3191 14.2774C31.3191 14.2774 31.3191 14.2775 31.3191 14.2775C31.3191 14.2775 31.3191 14.2776 31.3191 14.2776C31.3191 14.2776 31.3191 14.2777 31.3191 14.2777C31.3191 14.2777 31.3191 14.2777 31.3191 14.2778C31.3191 14.2778 31.3191 14.2778 31.3191 14.2779C31.3191 14.2779 31.3191 14.2779 31.3191 14.2779C31.3191 14.278 31.3191 14.278 31.3191 14.278C31.3191 14.2781 31.3191 14.2781 31.3191 14.2781C31.3191 14.2781 31.3191 14.2782 31.3191 14.2782C31.3191 14.2782 31.3191 14.2783 31.3191 14.2783C31.3191 14.2783 31.3191 14.2783 31.3191 14.2784C31.3191 14.2784 31.3191 14.2784 31.3191 14.2785C31.3191 14.2785 31.3191 14.2785 31.3191 14.2785C31.3191 14.2786 31.3191 14.2786 31.3191 14.2786C31.3191 14.2787 31.3191 14.2787 31.3191 14.2787C31.3191 14.2787 31.3191 14.2788 31.3191 14.2788C31.3191 14.2788 31.3191 14.2788 31.3191 14.2789C31.3191 14.2789 31.3191 14.2789 31.3191 14.2789C31.3191 14.279 31.3191 14.279 31.3191 14.279C31.3191 14.2791 31.3191 14.2791 31.3191 14.2791C31.3191 14.2791 31.3191 14.2792 31.3191 14.2792C31.3191 14.2792 31.3191 14.2792 31.3191 14.2793C31.3191 14.2793 31.3191 14.2793 31.3191 14.2793C31.3191 14.2794 31.3191 14.2794 31.3191 14.2794C31.3191 14.2794 31.3191 14.2795 31.3191 14.2795C31.3191 14.2795 31.3191 14.2795 31.3191 14.2796C31.3191 14.2796 31.3191 14.2796 31.3191 14.2796C31.3191 14.2797 31.3191 14.2797 31.3191 14.2797C31.3191 14.2797 31.3191 14.2798 31.3191 14.2798C31.3191 14.2798 31.3191 14.2798 31.3191 14.2799C31.3191 14.2799 31.3191 14.2799 31.3191 14.2799C31.3191 14.28 31.3191 14.28 31.3191 14.28C31.3191 14.28 31.3191 14.2801 31.3191 14.2801C31.3191 14.2801 31.3191 14.2801 31.3191 14.2802C31.3191 14.2802 31.3191 14.2802 31.3191 14.2802C31.3191 14.2802 31.3191 14.2803 31.3191 14.2803C31.3191 14.2803 31.3191 14.2803 31.3191 14.2804C31.3191 14.2804 31.3191 14.2804 31.3191 14.2804C31.3191 14.2805 31.3191 14.2805 31.3191 14.2805C31.3191 14.2805 31.3191 14.2806 31.3191 14.2806C31.3191 14.2806 31.3191 14.2806 31.3191 14.2806C31.3191 14.2807 31.3191 14.2807 31.3191 14.2807C31.3191 14.2807 31.3191 14.2808 31.3191 14.2808C31.3191 14.2808 31.3191 14.2808 31.3191 14.2808C31.3191 14.2809 31.3191 14.2809 31.3191 14.2809C31.3191 14.2809 31.3191 14.2809 31.3191 14.281C31.3191 14.281 31.3191 14.281 31.3191 14.281C31.3191 14.2811 31.3191 14.2811 31.3191 14.2811C31.3191 14.2811 31.3191 14.2811 31.3191 14.2812C31.3191 14.2812 31.3191 14.2812 31.3191 14.2812C31.3191 14.2812 31.3191 14.2813 31.3191 14.2813C31.3191 14.2813 31.3191 14.2813 31.3191 14.2814C31.3191 14.2814 31.3191 14.2814 31.3191 14.2814C31.3191 14.2814 31.3191 14.2815 31.3191 14.2815C31.3191 14.2815 31.3191 14.2815 31.3191 14.2815C31.3191 14.2816 31.3191 14.2816 31.3191 14.2816C31.3191 14.2816 31.3191 14.2816 31.3191 14.2817C31.3191 14.2817 31.3191 14.2817 31.3191 14.2817C31.3191 14.2817 31.3191 14.2818 31.3191 14.2818C31.3191 14.2818 31.3191 14.2818 31.3191 14.2818C31.3191 14.2819 31.3191 14.2819 31.3191 14.2819C31.3191 14.2819 31.3191 14.2819 31.3191 14.2819C31.3191 14.282 31.3191 14.282 31.3191 14.282C31.3191 14.282 31.3191 14.282 31.3191 14.2821C31.3191 14.2821 31.3191 14.2821 31.3191 14.2821C31.3191 14.2821 31.3191 14.2822 31.3191 14.2822C31.3191 14.2822 31.3191 14.2822 31.3191 14.2822C31.3191 14.2822 31.3191 14.2823 31.3191 14.2823C31.3191 14.2823 31.3191 14.2823 31.3191 14.2823C31.3191 14.2824 31.3191 14.2824 31.3191 14.2824C31.3191 14.2824 31.3191 14.2824 31.3191 14.2824C31.3191 14.2825 31.3191 14.2825 31.3191 14.2825C31.3191 14.2825 31.3191 14.2825 31.3191 14.2825C31.3191 14.2826 31.3191 14.2826 31.3191 14.2826C31.3191 14.2826 31.3191 14.2826 31.3191 14.2827C31.3191 14.2827 31.3191 14.2827 31.3191 14.2827C31.3191 14.2827 31.3191 14.2827 31.3191 14.2828C31.3191 14.2828 31.3191 14.2828 31.3191 14.2828C31.3191 14.2828 31.3191 14.2828 31.3191 14.2829C31.3191 14.2829 31.3191 14.2829 31.3191 14.2829C31.3191 14.2829 31.3191 14.2829 31.3191 14.2829C31.3191 14.283 31.3191 14.283 31.3191 14.283C31.3191 14.283 31.3191 14.283 31.3191 14.283C31.3191 14.2831 31.3191 14.2831 31.3191 14.2831C31.3191 14.2831 31.3191 14.2831 31.3191 14.2831C31.3191 14.2832 31.3191 14.2832 31.3191 14.2832C31.3191 14.2832 31.3191 14.2832 31.3191 14.2832C31.3191 14.2832 31.3191 14.2833 31.3191 14.2833C31.3191 14.2833 31.3191 14.2833 31.3191 14.2833C31.3191 14.2833 31.3191 14.2834 31.3191 14.2834C31.3191 14.2834 31.3191 14.2834 31.3191 14.2834C31.3191 14.2834 31.3191 14.2834 31.3191 14.2835C31.3191 14.2835 31.3191 14.2835 31.3191 14.2835C31.3191 14.2835 31.3191 14.2835 31.3191 14.2835C31.3191 14.2836 31.3191 14.2836 31.3191 14.2836C31.3191 14.2836 31.3191 14.2836 31.3191 14.2836C31.3191 14.2836 31.3191 14.2837 31.3191 14.2837C31.3191 14.2837 31.3191 14.2837 31.3191 14.2837C31.3191 14.2837 31.3191 14.2837 31.3191 14.2838C31.3191 14.2838 31.3191 14.2838 31.3191 14.2838C31.3191 14.2838 31.3191 14.2838 31.3191 14.2838C31.3191 14.2838 31.3191 14.2839 31.3191 14.2839C31.3191 14.2839 31.3191 14.2839 31.3191 14.2839C31.3191 14.2839 31.3191 14.2839 31.3191 14.284C31.3191 14.284 31.3191 14.284 31.3191 14.284C31.3191 14.284 31.3191 14.284 31.3191 14.284C31.3191 14.284 31.3191 14.2841 31.3191 14.2841C31.3191 14.2841 31.3191 14.2841 31.3191 14.2841C31.3191 14.2841 31.3191 14.2841 31.3191 14.2841C31.3191 14.2842 31.3191 14.2842 31.3191 14.2842C31.3191 14.2842 31.3191 14.2842 31.3191 14.2842C31.3191 14.2842 31.3191 14.2842 31.3191 14.2843C31.3191 14.2843 31.3191 14.2843 31.3191 14.2843C31.3191 14.2843 31.3191 14.2843 31.3191 14.2843C31.3191 14.2843 31.3191 14.2843 31.3191 14.2844C31.3191 14.2844 31.3191 14.2844 31.3191 14.2844C31.3191 14.2844 31.3191 14.2844 31.3191 14.2844C31.3191 14.2844 31.3191 14.2844 31.3191 14.2845C31.3191 14.2845 31.3191 14.2845 31.3191 14.2845C31.3191 14.2845 31.3191 14.2845 31.3191 14.2845C31.3191 14.2845 31.3191 14.2845 31.3191 14.2846C31.3191 14.2846 31.3191 14.2846 31.3191 14.2846C31.3191 14.2846 31.3191 14.2846 31.3191 14.2846C31.3191 14.2846 31.3191 14.2846 31.3191 14.2847C31.3191 14.2847 31.3191 14.2847 31.3191 14.2847C31.3191 14.2847 31.3191 14.2847 31.3191 14.2847C31.3191 14.2847 31.3191 14.2847 31.3191 14.2847C31.3191 14.2848 31.3191 14.2848 31.3191 14.2848C31.3191 14.2848 31.3191 14.2848 31.3191 14.2848C31.3191 14.2848 31.3191 14.2848 31.3191 14.2848C31.3191 14.2848 31.3191 14.2849 31.3191 14.2849C31.3191 14.2849 31.3191 14.2849 31.3191 14.2849C31.3191 14.2849 31.3191 14.2849 31.3191 14.2849C31.3191 14.2849 31.3191 14.2849 31.3191 14.285C31.3191 14.285 31.3191 14.285 31.3191 14.285C31.3191 14.285 31.3191 14.285 31.3191 14.285C31.3191 14.285 31.3191 14.285 31.3191 14.285C31.3191 14.285 31.3191 14.2851 31.3191 14.2851C31.3191 14.2851 31.3191 14.2851 31.3191 14.2851C31.3191 14.2851 31.3191 14.2851 31.3191 14.2851C31.3191 14.2851 31.3191 14.2851 31.3191 14.2851C31.3191 14.2852 31.3191 14.2852 31.3191 14.2852C31.3191 14.2852 31.3191 14.2852 31.3191 14.2852C31.3191 14.2852 31.3191 14.2852 31.3191 14.2852C31.3191 14.2852 31.3191 14.2852 31.3191 14.2852C31.3191 14.2853 31.3191 14.2853 31.3191 14.2853C31.3191 14.2853 31.3191 14.2853 31.3191 14.2853C31.3191 14.2853 31.3191 14.2853 31.3191 14.2853C31.3191 14.2853 31.3191 14.2853 31.3191 14.2853C31.3191 14.2853 31.3191 14.2854 31.3191 14.2854C31.3191 14.2854 31.3191 14.2854 31.3191 14.2854C31.3191 14.2854 31.3191 14.2854 31.3191 14.2854C31.3191 14.2854 31.3191 14.2854 31.3191 14.2854C31.3191 14.2854 31.3191 14.2854 31.3191 14.2855C31.3191 14.2855 31.3191 14.2855 31.3191 14.2855C31.3191 14.2855 31.3191 14.2855 31.3191 14.2855C31.3191 14.2855 31.3191 14.2855 31.3191 14.2855C31.3191 14.2855 31.3191 14.2855 31.3191 14.2855C31.3191 14.2855 31.3191 14.2856 31.3191 14.2856C31.3191 14.2856 31.3191 14.2856 31.3191 14.2856C31.3191 14.2856 31.3191 14.2856 31.3191 14.2856C31.3191 14.2856 31.3191 14.2856 31.3191 14.2856C31.3191 14.2856 31.3191 14.2856 31.3191 14.2856C31.3191 14.2856 31.3191 14.2857 31.3191 14.2857C31.3191 14.2857 31.3191 14.2857 31.3191 14.2857C31.3191 14.2857 31.3191 14.2857 31.3191 14.2857C31.3191 14.2857 31.3191 14.2857 31.3191 14.2857C31.3191 14.2857 31.3191 14.2857 31.3191 14.2857C31.3191 14.2857 31.3191 14.2857 31.3191 14.2857C31.3191 14.2858 31.3191 14.2858 31.3191 14.2858C31.3191 14.2858 31.3191 14.2858 31.3191 14.2858C31.3191 14.2858 31.3191 14.2858 31.3191 14.2858C31.3191 14.2858 31.3191 14.2858 31.3191 14.2858C31.3191 14.2858 31.3191 14.2858 31.3191 14.2858C31.3191 14.2858 31.3191 14.2858 31.3191 14.2858C31.3191 14.2859 31.3191 14.2859 31.3191 14.2859C31.3191 14.2859 31.3191 14.2859 31.3191 14.2859C31.3191 14.2859 31.3191 14.2859 31.3191 14.2859C31.3191 14.2859 31.3191 14.2859 31.3191 14.2859C31.3191 14.2859 31.3191 14.2859 31.3191 14.2859C31.3191 14.2859 31.3191 14.2859 31.3191 14.2859C31.3191 14.2859 31.3191 14.286 31.3191 14.286C31.3191 14.286 31.3191 14.286 31.3191 14.286C31.3191 14.286 31.3191 14.286 31.3191 14.286C31.3191 14.286 31.3191 14.286 31.3191 14.286C31.3191 14.286 31.3191 14.286 31.3191 14.286C31.3191 14.286 31.3191 14.286 31.3191 14.286C31.3191 14.286 31.3191 14.286 31.3191 14.286C31.3191 14.286 31.3191 14.286 31.3191 14.2861C31.3191 14.2861 31.3191 14.2861 31.3191 14.2861C31.3191 14.2861 31.3191 14.2861 31.3191 14.2861C31.3191 14.2861 31.3191 14.2861 31.3191 14.2861C31.3191 14.2861 31.3191 14.2861 31.3191 14.2861C31.3191 14.2861 31.3191 14.2861 31.3191 14.2861C31.3191 14.2861 31.3191 14.2861 31.3191 14.2861C31.3191 14.2861 31.3191 14.2861 31.3191 14.2861C31.3191 14.2861 31.3191 14.2861 31.3191 14.2861C31.3191 14.2862 31.3191 14.2862 31.3191 14.2862C31.3191 14.2862 31.3191 14.2862 31.3191 14.2862C31.3191 14.2862 31.3191 14.2862 31.3191 14.2862C31.3191 14.2862 31.3191 14.2862 31.3191 14.2862C31.3191 14.2862 31.3191 14.2862 31.3191 14.2862C31.3191 14.2862 31.3191 14.2862 31.3191 14.2862C31.3191 14.2862 31.3191 14.2862 31.3191 14.2862C31.3191 14.2862 31.3191 14.2862 31.3191 14.2862C31.3191 14.2862 31.3191 14.2862 31.3191 14.2862C31.3191 14.2862 31.3191 14.2862 31.3191 14.2862C31.3191 14.2863 31.3191 14.2863 31.3191 14.2863C31.3191 14.2863 31.3191 14.2863 31.3191 14.2863C31.3191 14.2863 31.3191 14.2863 31.3191 14.2863C31.3191 14.2863 31.3191 14.2863 31.3191 14.2863C31.3191 14.2863 31.3191 14.2863 31.3191 14.2863C31.3191 14.2863 31.3191 14.2863 31.3191 14.2863C31.3191 14.2863 31.3191 14.2863 31.3191 14.2863C31.3191 14.2863 31.3191 14.2863 31.3191 14.2863C31.3191 14.2863 31.3191 14.2863 31.3191 14.2863C31.3191 14.2863 31.3191 14.2863 31.3191 14.2863C31.3191 14.2863 31.3191 14.2863 31.3191 14.2863C31.3191 14.2863 31.3191 14.2863 31.3191 14.2863C31.3191 14.2863 31.3191 14.2863 31.3191 14.2864C31.3191 14.2864 31.3191 14.2864 31.3191 14.2864C31.3191 14.2864 31.3191 14.2864 31.3191 14.2864C31.3191 14.2864 31.3191 14.2864 31.3191 14.2864C31.3191 14.2864 31.3191 14.2864 31.3191 14.2864C31.3191 14.2864 31.3191 14.2864 31.3191 14.2864C31.3191 14.2864 31.3191 14.2864 31.3191 14.2864C31.3191 14.2864 31.3191 14.2864 31.3191 14.2864C31.3191 14.2864 31.3191 14.2864 31.3191 14.2864C31.3191 14.2864 31.3191 14.2864 31.3191 14.2864C31.3191 14.2864 31.3191 14.2864 31.3191 14.2864C31.3191 14.2864 31.3191 14.2864 31.3191 14.2864C31.3191 14.2864 31.3191 14.2864 31.3191 14.2864C31.3191 14.2864 31.3191 14.2864 31.3191 14.2864C31.3191 14.2864 31.3191 14.2864 31.3191 14.2864C31.3191 14.2864 31.3191 14.2864 31.3191 14.2864C31.3191 14.2864 31.3191 14.2864 31.3191 14.2864C31.3191 14.2864 31.3191 14.2864 31.3191 14.2864C31.3191 14.2864 31.3191 14.2864 31.3191 14.2864C31.3191 14.2864 31.3191 14.2865 31.3191 14.2865C31.3191 14.2865 31.3191 14.2865 31.3191 14.2865C31.3191 14.2865 31.3191 14.2865 31.3191 14.2865C31.3191 14.2865 31.3191 14.2865 31.3191 14.2865C31.3191 14.2865 31.3191 14.2865 31.3191 14.2865C31.3191 14.2865 31.3191 14.2865 31.3191 14.2865C31.3191 14.2865 31.3191 14.2865 31.3191 14.2865C31.3191 14.2865 31.3191 14.2865 31.3191 14.2865C31.3191 14.2865 31.3191 14.2865 31.3191 14.2865C31.3191 14.2865 31.3191 14.2865 31.3191 14.2865C31.3191 14.2865 31.3191 14.2865 31.3191 14.2865C31.3191 14.2865 31.3191 14.2865 31.3191 14.2865C31.3191 14.2865 31.3191 14.2865 31.3191 14.2865C31.3191 14.2865 31.3191 14.2865 31.3191 14.2865C31.3191 14.2865 31.3191 14.2865 31.3191 14.2865C31.3191 14.2865 31.3191 14.2865 31.3191 14.2865C31.3191 14.2865 31.3191 14.2865 31.3191 14.2865C31.3191 14.2865 31.3191 14.2865 31.3191 14.2865C31.3191 14.2865 31.3191 14.2865 31.3191 14.2865C31.3191 14.2865 31.3191 14.2865 31.3191 14.2865C31.3191 14.2865 31.3191 14.2865 31.3191 14.2865C31.3191 14.2865 31.3191 14.2865 31.3191 14.2865C31.3191 14.2865 31.3191 14.2865 31.3191 14.2865C31.3191 14.2865 31.3191 14.2865 31.3191 14.2865V14.2865C31.3191 14.2865 31.3191 14.2865 31.3191 14.2865V14.2865C31.3191 14.2865 31.3191 14.2865 31.3191 14.2865V14.2865C31.3191 14.2865 31.3191 14.2865 31.3191 14.2865C31.3191 14.2865 31.3191 14.2865 31.3191 14.2865C31.3191 14.2865 31.3191 14.2865 31.3191 14.2865V14.2865V14.2865V14.2865V14.2865C31.3191 14.2865 31.3191 14.2865 31.3191 14.2865C31.3191 14.2865 31.3191 14.2865 31.3191 14.2865V14.2865C31.3191 14.2865 31.3191 14.2865 31.3191 14.2865C31.3191 14.2865 31.3191 14.2865 31.3191 14.2865C31.3191 14.2865 31.3191 14.2865 31.3191 14.2865C31.3191 14.2865 31.3191 14.2865 31.3191 14.2865C31.3191 14.2865 31.3191 14.2865 31.3191 14.2865C34.3191 14.2865 37.3191 14.2865 34.3191 14.2865ZM35.5954 16.9575L41.8057 14.038L39.2531 8.60808L33.0428 11.5276L35.5954 16.9575ZM41.8002 14.0406C43.8789 13.0686 44.772 10.5904 43.7865 8.51442L38.3662 11.0875C37.9239 10.1559 38.3251 9.04202 39.2587 8.60547L41.8002 14.0406ZM43.7913 8.52477C43.383 7.65595 42.6785 6.94194 41.7858 6.53024L39.273 11.9787C38.8575 11.7871 38.5421 11.4618 38.3613 11.0772L43.7913 8.52477ZM41.8705 6.5709L41.8631 6.56723L39.1811 11.9344L39.1884 11.9381L41.8705 6.5709ZM29.0287 20.4189C29.0287 19.6328 29.4458 19.4476 29.0063 19.8984C28.702 20.2104 28.1454 20.646 27.32 21.0908C25.6803 21.9745 23.3062 22.7187 20.588 22.7187V28.7187C24.3627 28.7187 27.709 27.697 30.1664 26.3727C31.3896 25.7135 32.4757 24.9346 33.302 24.0872C33.9932 23.3785 35.0287 22.089 35.0287 20.4189H29.0287ZM20.588 22.7187C17.8697 22.7187 15.4957 21.9745 13.8559 21.0908C13.0305 20.646 12.474 20.2104 12.1696 19.8984C11.7301 19.4476 12.1472 19.6328 12.1472 20.4189H6.14724C6.14724 22.089 7.1828 23.3785 7.87392 24.0872C8.7002 24.9346 9.78637 25.7135 11.0095 26.3727C13.4669 27.697 16.8133 28.7187 20.588 28.7187V22.7187ZM12.1472 20.4189V15.3135H6.14724V20.4189H12.1472ZM7.8723 18.0291L18.8249 23.1712L21.3748 17.74L10.4222 12.5979L7.8723 18.0291ZM18.8373 23.177C19.9463 23.6915 21.226 23.6915 22.335 23.177L19.8099 17.7342C20.3023 17.5057 20.87 17.5057 21.3624 17.7342L18.8373 23.177ZM22.3474 23.1712L33.3 18.0291L30.7501 12.5979L19.7975 17.74L22.3474 23.1712ZM29.025 15.3135V20.4189H35.025V15.3135H29.025ZM32.025 23.4189H32.0287V17.4189H32.025V23.4189ZM21.8684 15.4522L5.10921 7.57034L2.55571 12.9999L19.3149 20.8817L21.8684 15.4522ZM5.10921 12.9999L21.8684 5.11801L19.3149 -0.311509L2.55571 7.57034L5.10921 12.9999ZM19.3149 5.11801L36.0741 12.9999L38.6276 7.57034L21.8684 -0.311509L19.3149 5.11801ZM36.0741 7.57034L19.3149 15.4522L21.8684 20.8817L38.6276 12.9999L36.0741 7.57034Z" fill="#9477FF" mask="url(#path-1-inside-1)"/>
<path d="M0.871099 22.1789C0.871099 22.1777 0.871101 22.1764 0.871107 22.1752L0.871099 22.1789Z" fill="#9477FF" stroke="#9477FF" stroke-width="3"/>
</svg>
