<svg width="24" height="24" viewBox="0 0 24 24" fill="none" xmlns="http://www.w3.org/2000/svg">
<path fill-rule="evenodd" clip-rule="evenodd" d="M16 2C17.1046 2 18 2.89543 18 4C18 5.10457 17.1046 6 16 6C14.8954 6 14 5.10457 14 4C14 2.89543 14.8954 2 16 2Z" fill="#3E74E7"/>
<path fill-rule="evenodd" clip-rule="evenodd" d="M22 2C23.1046 2 24 2.89543 24 4C24 5.10457 23.1046 6 22 6C20.8954 6 20 5.10457 20 4C20 2.89543 20.8954 2 22 2Z" fill="#3E74E7"/>
<path fill-rule="evenodd" clip-rule="evenodd" d="M16 8C17.1046 8 18 8.89543 18 10C18 11.1046 17.1046 12 16 12C14.8954 12 14 11.1046 14 10C14 8.89543 14.8954 8 16 8Z" fill="#3E74E7"/>
<path fill-rule="evenodd" clip-rule="evenodd" d="M22 8C23.1046 8 24 8.89543 24 10C24 11.1046 23.1046 12 22 12C20.8954 12 20 11.1046 20 10C20 8.89543 20.8954 8 22 8Z" fill="#3E74E7"/>
<path fill-rule="evenodd" clip-rule="evenodd" d="M8.5 10C9.88071 10 11 8.88071 11 7.5C11 6.11929 9.88071 5 8.5 5C7.11929 5 6 6.11929 6 7.5C6 8.88071 7.11929 10 8.5 10ZM8.5 12C10.9853 12 13 9.98528 13 7.5C13 5.01472 10.9853 3 8.5 3C6.01472 3 4 5.01472 4 7.5C4 9.98528 6.01472 12 8.5 12Z" fill="#3E74E7"/>
<path fill-rule="evenodd" clip-rule="evenodd" d="M0.0229343 20.302C0.154998 21.1666 0.833459 21.845 1.69799 21.9771C1.84812 22 2.02742 22 2.38601 22H14.614C14.9726 22 15.1519 22 15.302 21.9771C16.1665 21.845 16.845 21.1666 16.9771 20.302C17 20.1519 17 19.9726 17 19.614V18.1489C17 17.3893 16.8624 16.6359 16.594 15.9253L16.5335 15.7652C15.748 13.686 13.4254 12.6375 11.3464 13.4237C9.51217 14.1173 7.48783 14.1173 5.65364 13.4237C3.57462 12.6375 1.25198 13.686 0.466475 15.7652L0.406009 15.9253C0.137555 16.6359 0 17.3893 0 18.1489V19.614C0 19.9726 0 20.1519 0.0229343 20.302ZM14.9974 19.9974C14.9976 19.9932 14.9977 19.9885 14.9978 19.9833C14.9998 19.9075 15 19.8038 15 19.614V18.1489C15 17.6307 14.9062 17.1168 14.723 16.6321L14.6626 16.472C14.2675 15.4263 13.0994 14.899 12.0538 15.2944C9.76372 16.1604 7.23628 16.1604 4.94623 15.2944C3.90062 14.899 2.73248 15.4263 2.33742 16.472L2.27695 16.6321C2.09383 17.1168 2 17.6307 2 18.1489V19.614C2 19.8038 2.00016 19.9075 2.00217 19.9833C2.0023 19.9885 2.00244 19.9932 2.00258 19.9974C2.00686 19.9976 2.01156 19.9977 2.01669 19.9979C2.09255 19.9999 2.19626 20 2.38601 20H14.614C14.8037 20 14.9075 19.9999 14.9833 19.9979C14.9884 19.9977 14.9931 19.9976 14.9974 19.9974Z" fill="#3E74E7"/>
</svg>
