<svg width="24" height="15" viewBox="0 0 24 15" fill="none" xmlns="http://www.w3.org/2000/svg">
<path fill-rule="evenodd" clip-rule="evenodd" d="M10.477 3.14615C10.477 4.88702 9.08218 6.29229 7.34132 6.29229C5.60045 6.29229 4.19517 4.88702 4.19517 3.14615C4.19517 1.40528 5.60045 0 7.34132 0C9.08218 0 10.477 1.40528 10.477 3.14615ZM18.8665 3.14615C18.8665 4.88702 17.4717 6.29229 15.7308 6.29229C13.99 6.29229 12.5847 4.88702 12.5847 3.14615C12.5847 1.40528 13.99 0 15.7308 0C17.4717 0 18.8665 1.40528 18.8665 3.14615ZM7.34101 8.38951C4.8975 8.38951 0 9.61651 0 12.06V13.6331C0 14.2099 0.471922 14.6818 1.04872 14.6818H13.6333C14.2101 14.6818 14.682 14.2099 14.682 13.6331V12.06C14.682 9.61651 9.78452 8.38951 7.34101 8.38951ZM14.7136 8.44195C15.0806 8.41049 15.4267 8.38951 15.7308 8.38951C18.1743 8.38951 23.0719 9.61651 23.0719 12.06V13.6331C23.0719 14.2099 22.5999 14.6818 22.0231 14.6818H16.5908C16.7061 14.3567 16.7796 14.0001 16.7796 13.6331V12.06C16.7796 10.5184 15.9511 9.35433 14.7555 8.4839C14.7524 8.48072 14.7492 8.47659 14.7457 8.47207C14.7377 8.46167 14.7282 8.44926 14.7136 8.44195Z" fill="white"/>
</svg>
