<svg width="20" height="21" viewBox="0 0 20 21" fill="none" xmlns="http://www.w3.org/2000/svg">
<path d="M8 15.2137V6.21375L14 10.7137L8 15.2137ZM10 0.713745C8.68678 0.713745 7.38642 0.972403 6.17317 1.47495C4.95991 1.9775 3.85752 2.71409 2.92893 3.64268C1.05357 5.51804 0 8.06158 0 10.7137C0 13.3659 1.05357 15.9094 2.92893 17.7848C3.85752 18.7134 4.95991 19.45 6.17317 19.9525C7.38642 20.4551 8.68678 20.7137 10 20.7137C12.6522 20.7137 15.1957 19.6602 17.0711 17.7848C18.9464 15.9094 20 13.3659 20 10.7137C20 9.40053 19.7413 8.10017 19.2388 6.88691C18.7362 5.67365 17.9997 4.57126 17.0711 3.64268C16.1425 2.71409 15.0401 1.9775 13.8268 1.47495C12.6136 0.972403 11.3132 0.713745 10 0.713745Z"/>
</svg>
