<svg width="20" height="20" viewBox="0 0 20 20" fill="none" xmlns="http://www.w3.org/2000/svg">
<path d="M10 0C4.48598 0 0 4.48598 0 10C0 15.514 4.48598 20 10 20C15.514 20 20 15.514 20 10C20 4.48598 15.514 0 10 0ZM10 18.3098C5.41793 18.3098 1.69016 14.5821 1.69016 10C1.69016 5.41793 5.41793 1.69016 10 1.69016C14.5821 1.69016 18.3098 5.41793 18.3098 10C18.3098 14.5821 14.5821 18.3098 10 18.3098Z" fill="white"/>
<path d="M9 5C9 4.44772 9.44772 4 10 4V4C10.5523 4 11 4.44772 11 5V11H9V5Z" fill="white"/>
<path d="M13.8587 11.8361C14.3215 12.1374 14.4525 12.7568 14.1513 13.2197V13.2197C13.85 13.6826 13.2305 13.8136 12.7677 13.5123L9.03072 11.08L10.1217 9.40379L13.8587 11.8361Z" fill="white"/>
<path d="M13.8587 11.8361C14.3215 12.1374 14.4525 12.7568 14.1513 13.2197V13.2197C13.85 13.6826 13.2305 13.8136 12.7677 13.5123L9.03072 11.08L10.1217 9.40379L13.8587 11.8361Z" fill="white"/>
<path d="M13.8587 11.8361C14.3215 12.1374 14.4525 12.7568 14.1513 13.2197V13.2197C13.85 13.6826 13.2305 13.8136 12.7677 13.5123L9.03072 11.08L10.1217 9.40379L13.8587 11.8361Z" fill="white"/>
<path d="M13.8587 11.8361C14.3215 12.1374 14.4525 12.7568 14.1513 13.2197V13.2197C13.85 13.6826 13.2305 13.8136 12.7677 13.5123L9.03072 11.08L10.1217 9.40379L13.8587 11.8361Z" fill="white"/>
</svg>
