<svg width="24" height="24" viewBox="0 0 24 24" fill="none" xmlns="http://www.w3.org/2000/svg">
<path fill-rule="evenodd" clip-rule="evenodd" d="M6.00001 11L6 17C6 17.5001 6.41279 18.2349 7.55656 18.9064C8.65317 19.5503 10.2247 20 12 20C13.7753 20 15.3468 19.5503 16.4434 18.9064C17.5872 18.2349 18 17.5001 18 17V11H20V17C20 18.5501 18.8458 19.8152 17.4561 20.6312C16.0192 21.4748 14.0907 22 12 22C9.90932 22 7.98084 21.4748 6.54395 20.6312C5.15421 19.8152 4 18.5501 4 17L4.00001 11H6.00001Z" fill="#8491A3"/>
<path d="M11.9999 4.13912L1.4788 9.87793C0.993949 10.1424 0.386512 9.96374 0.122049 9.47889C-0.142413 8.99404 0.0362445 8.3866 0.521093 8.12214L11.2817 2.25274C11.7294 2.00853 12.2705 2.00853 12.7182 2.25274L23.4788 8.12214C23.9636 8.3866 24.1423 8.99404 23.8778 9.47889C23.6134 9.96374 23.0059 10.1424 22.5211 9.87793L11.9999 4.13912Z" fill="#8491A3"/>
<path fill-rule="evenodd" clip-rule="evenodd" d="M12.0001 13.8609L1.47891 8.12207C0.994059 7.85761 0.386622 8.03626 0.122161 8.52111C-0.142303 9.00596 0.0363547 9.6134 0.521205 9.87786L11.2818 15.7473C11.7295 15.9915 12.2706 15.9915 12.7183 15.7473L23.4789 9.87786C23.9638 9.6134 24.1424 9.00596 23.878 8.52111C23.6135 8.03627 23.0061 7.85761 22.5212 8.12207L12.0001 13.8609Z" fill="#8491A3"/>
<path fill-rule="evenodd" clip-rule="evenodd" d="M1 8C1.55228 8 2 8.44772 2 9V16C2 16.5523 1.55228 17 1 17C0.447715 17 0 16.5523 0 16V9C0 8.44772 0.447715 8 1 8Z" fill="#8491A3"/>
</svg>
