<svg width="40" height="29" viewBox="0 0 40 29" fill="none" xmlns="http://www.w3.org/2000/svg">
<path fill-rule="evenodd" clip-rule="evenodd" d="M36.6667 22C36.6667 23.8333 35.1667 25.3333 33.3333 25.3333H38.3333C39.25 25.3333 40 26.0833 40 27C40 27.9167 39.25 28.6667 38.3333 28.6667H1.66667C0.75 28.6667 0 27.9167 0 27C0 26.0833 0.75 25.3333 1.66667 25.3333H6.66667C4.81667 25.3333 3.33333 23.8333 3.33333 22V3.33333C3.33333 1.5 4.83333 0 6.66667 0H33.3333C35.1667 0 36.6667 1.5 36.6667 3.33333V22ZM20.6531 6.30022L25.7365 11.8843C26.3013 12.5047 25.9005 13.5855 25.0806 13.5855L21.8192 13.5855V20.9986C21.8192 22.0993 20.9993 23 19.9972 23C18.9951 23 18.1752 22.0993 18.1752 20.9986V13.5855H14.9138C14.0939 13.5855 13.6931 12.5047 14.2761 11.8843L19.3595 6.30022C19.7239 5.89993 20.2887 5.89993 20.6531 6.30022Z" fill="#3E74E7"/>
</svg>
