<svg width="24" height="24" viewBox="0 0 24 24" fill="none" xmlns="http://www.w3.org/2000/svg">
<path d="M20.1562 7.90625C19.9688 7.15625 19.375 6.5625 18.6562 6.375C17.3125 6 12 6 12 6C12 6 6.65625 6 5.3125 6.375C4.59375 6.5625 4 7.15625 3.8125 7.90625C3.4375 9.21875 3.4375 12.0312 3.4375 12.0312C3.4375 12.0312 3.4375 14.8125 3.8125 16.1562C4 16.9062 4.59375 17.4688 5.3125 17.6562C6.65625 18 12 18 12 18C12 18 17.3125 18 18.6562 17.6562C19.375 17.4688 19.9688 16.9062 20.1562 16.1562C20.5312 14.8125 20.5312 12.0312 20.5312 12.0312C20.5312 12.0312 20.5312 9.21875 20.1562 7.90625ZM10.25 14.5625V9.5L14.6875 12.0312L10.25 14.5625Z" fill="#2E3B4D"/>
</svg>
